<svg xmlns="http://www.w3.org/2000/svg" xmlns:xlink="http://www.w3.org/1999/xlink" width="330.887" height="230.304" viewBox="0 0 330.887 230.304">
  <defs>
    <linearGradient id="linear-gradient" x1="0.5" y1="0.035" x2="0.5" y2="0.596" gradientUnits="objectBoundingBox">
      <stop offset="0" stop-color="#b0bacc"/>
      <stop offset="1" stop-color="#969eae"/>
    </linearGradient>
    <linearGradient id="linear-gradient-2" x1="0.036" y1="0.288" x2="0.596" y2="0.548" gradientUnits="objectBoundingBox">
      <stop offset="0" stop-color="#e3e7ee"/>
      <stop offset="1" stop-color="#d1d6df"/>
    </linearGradient>
    <linearGradient id="linear-gradient-3" x1="0.5" y1="0.035" x2="0.5" y2="0.596" gradientUnits="objectBoundingBox">
      <stop offset="0" stop-color="#bdc4d1" stop-opacity="0.529"/>
      <stop offset="1" stop-color="#5d7cb8" stop-opacity="0"/>
    </linearGradient>
    <linearGradient id="linear-gradient-4" x1="0.5" x2="0.5" y2="1" gradientUnits="objectBoundingBox">
      <stop offset="0" stop-color="#b6bfd7"/>
      <stop offset="1" stop-color="#838da7" stop-opacity="0"/>
    </linearGradient>
    <linearGradient id="linear-gradient-5" x1="0.482" y1="0.113" x2="0.508" y2="0.622" xlink:href="#linear-gradient"/>
    <linearGradient id="linear-gradient-6" x1="0.5" y1="0.036" x2="0.5" y2="0.595" xlink:href="#linear-gradient"/>
    <linearGradient id="linear-gradient-7" x1="0.035" y1="0.402" x2="0.596" y2="0.521" xlink:href="#linear-gradient"/>
    <linearGradient id="linear-gradient-8" x1="0.523" y1="0.158" x2="0.502" y2="0.571" xlink:href="#linear-gradient"/>
    <linearGradient id="linear-gradient-9" x1="0.5" y1="0.842" x2="0.574" y2="0.179" xlink:href="#linear-gradient"/>
    <linearGradient id="linear-gradient-10" x1="0.5" y1="0.035" x2="0.5" y2="0.596" gradientUnits="objectBoundingBox">
      <stop offset="0" stop-color="#d6dce6"/>
      <stop offset="1" stop-color="#c4cbda"/>
    </linearGradient>
    <linearGradient id="linear-gradient-11" x1="0.5" y1="0.035" x2="0.5" y2="0.596" xlink:href="#linear-gradient-10"/>
    <linearGradient id="linear-gradient-12" x1="0.5" y1="0.035" x2="0.5" y2="0.596" xlink:href="#linear-gradient-10"/>
    <linearGradient id="linear-gradient-13" x1="0.5" y1="0.035" x2="0.5" y2="0.596" gradientUnits="objectBoundingBox">
      <stop offset="0" stop-color="#eaeef5"/>
      <stop offset="1" stop-color="#d4dae4"/>
    </linearGradient>
    <linearGradient id="linear-gradient-14" x1="0.5" y1="0.035" x2="0.5" y2="0.596" xlink:href="#linear-gradient-13"/>
    <linearGradient id="linear-gradient-15" x1="0.5" y1="0.035" x2="0.5" y2="0.596" xlink:href="#linear-gradient-13"/>
  </defs>
  <g id="_404" data-name="404" transform="translate(1)">
    <path id="Path" d="M92.214,46.178A46.087,46.087,0,0,1,48.928,91.892H46.1a46.666,46.666,0,0,1-22.582-6.069A45.831,45.831,0,0,1,0,45.714,43.678,43.678,0,0,1,11.76,15.386,46.372,46.372,0,0,1,46.1,0a45.847,45.847,0,0,1,40.93,25.186A46.3,46.3,0,0,1,92.214,46.178Z" transform="translate(142.345)" fill="url(#linear-gradient)"/>
    <path id="Path-2" data-name="Path" d="M92.214,30.415A46.087,46.087,0,0,1,48.93,76.129c-8.94-1.411-17.408-3.75-25.406-5.606A45.809,45.809,0,0,1,0,30.415,43.679,43.679,0,0,1,11.762.087,257.548,257.548,0,0,1,63.51,4.281c8.466,1.411,16.469,3.267,24.007,5.142A52.717,52.717,0,0,1,92.214,30.415Z" transform="translate(141.939 15.763)" opacity="0.1"/>
    <path id="Path-3" data-name="Path" d="M208.628,58.666c3.557-19.793-40.224-44.052-97.781-54.219C53.29-5.7,3.752,2.108.2,21.882-3.349,41.675,40.432,65.933,97.987,76.1,155.55,86.249,205.071,78.44,208.628,58.666Z" transform="translate(81.774 18.381)" fill="url(#linear-gradient-2)"/>
    <path id="Path-4" data-name="Path" d="M24.4,7.067c.261-3.344-4.987-6.475-11.721-7C5.943-.433.27,1.848.009,5.192-.252,8.516,5,11.648,11.731,12.17S24.138,10.411,24.4,7.067Z" transform="translate(153.547 27.069)" fill="#fff"/>
    <path id="Path-5" data-name="Path" d="M13.6,12.569c6.475-1.894,10.946-6.05,9.986-9.259S16.591-.961,10.115.952-.831,7,.13,10.211,7.119,14.483,13.6,12.569Z" transform="translate(105.153 30.129)" fill="#fff"/>
    <path id="Path-6" data-name="Path" d="M24.134,8.471c.58-3.305-4.33-6.92-10.979-8.1S.629.913.05,4.218c-.6,3.286,4.31,6.92,10.96,8.1C17.659,13.477,23.535,11.756,24.134,8.471Z" transform="translate(201.399 37.939)" fill="#fff"/>
    <path id="Path-7" data-name="Path" d="M22.091,13.3c1.566-2.977-2.049-7.867-8.06-10.94S1.911-.794.365,2.183c-1.566,2.977,2.049,7.886,8.06,10.96S20.545,16.274,22.091,13.3Z" transform="translate(239.143 57.487)" fill="#fff"/>
    <path id="Path-8" data-name="Path" d="M107.2.464,62.981,0,0,117.136l176.769,18.595-19.7-119.417Z" transform="translate(73.119 62.414)" fill="url(#linear-gradient-3)"/>
    <path id="Path-9" data-name="Path" d="M226.3,30.134H0c6.116-5.47,15.054-10.96,25.4-15.058,5.646-2.068,12.232-4.813,18.819-6.166C63.982,3.421,87.977,0,113.382,0c30.581,0,58.817,4.794,80.447,12.332,7.538,2.745,14.11,5.47,19.755,8.911C218.764,23.968,223,26.713,226.3,30.134Z" transform="translate(46.704 199.169)" opacity="0.5" fill="url(#linear-gradient-4)"/>
    <path id="Path-10" data-name="Path" d="M21.471,3.4c.3,2.783-4.554,6.108-10.167,6.707S.765,8.891,0,6.166C5.466,4.175,11.818,1.624,18.268,0,20.238.715,21.322,2.01,21.471,3.4Z" transform="translate(72.589 207.984)" opacity="0.3" fill="url(#linear-gradient-5)"/>
    <path id="Path-11" data-name="Path" d="M13.645,6.533c7.535,0,13.643-1.469,13.643-3.267C27.287,1.45,21.179,0,13.645,0S0,1.45,0,3.267C0,5.064,6.108,6.533,13.645,6.533Z" transform="translate(120.095 202.9)" opacity="0.3" fill="url(#linear-gradient-6)"/>
    <path id="Path-12" data-name="Path" d="M27.234,5.181C27.389,2.862,21.416.581,13.9.1,6.378-.4.158,1.083,0,3.384c-.155,2.32,5.814,4.6,13.333,5.084C20.855,8.97,27.079,7.481,27.234,5.181Z" transform="translate(180.052 203.981)" opacity="0.3" fill="url(#linear-gradient-7)"/>
    <path id="Path-13" data-name="Path" d="M19.841,8.466a36.738,36.738,0,0,1-6.881-.947C5.537,6.2-.262,3.189.009.87.048.406.048.406.57,0,7.837,2.706,14.448,5.335,19.841,8.466Z" transform="translate(239.247 211.212)" opacity="0.3" fill="url(#linear-gradient-8)"/>
    <path id="Path-14" data-name="Path" d="M94.585,26.449C96.17,17.557,76.319,6.636,50.218,2.036S1.682.9.09,9.767,18.356,29.58,44.449,34.18,92.981,35.321,94.585,26.449Z" transform="translate(135.336 53.498)" fill="url(#linear-gradient-9)"/>
    <path id="Path-15" data-name="Path" d="M12.256,0S-4,4.117.929,7.422C5.853,10.554,17.508,16,28.507,12.371s0-8.737.164-8.737S12.256,0,12.256,0Z" transform="translate(48.712 122.935)" fill="#ced7e2"/>
    <path id="Path-16" data-name="Path" d="M0,8.737C5.911,10.554,24.131,7.6,35.786,0,44.979,11.385,48.426,14.362,51.71,14.69c-5.089,5.1-22,13.357-31.518,2.629C9.029,24.432,0,8.737,0,8.737Z" transform="translate(41.104 112.864)" fill="#e9eef8"/>
    <path id="Path-17" data-name="Path" d="M0,17.493C6.243,17.822,23.157,10.225,32.338,0c11.83,8.737,15.753,10.728,19.213,10.225C47.763,16.507,36.281,30.192,20.025,31.2A171.176,171.176,0,0,1,0,17.493Z" transform="translate(236.299 118.972)" fill="#e9eef8"/>
    <path id="Path-18" data-name="Path" d="M25,48.13C23.763,42,12.2,27.506,0,21.166,5.526,7.538,6.464,3.228,5.126,0c7.015,2.107,23.143,9.819,28.151,25.321A170.36,170.36,0,0,1,25,48.13Z" transform="translate(157.242 88.548)" fill="#fff"/>
    <path id="Path-19" data-name="Path" d="M328.887.5H0" transform="translate(0 228.804)" fill="none" stroke="#d5dae8" stroke-linecap="round" stroke-linejoin="round" stroke-miterlimit="10" stroke-width="2"/>
    <path id="Shape" d="M23.523,49.444V40.572H0V29.845L21.641,0h12.7V31.256h5.647v9.316H34.344v8.872Z" transform="translate(87.633 160.588)" fill="url(#linear-gradient-10)"/>
    <path id="Shape-2" data-name="Shape" d="M0,25.649C0,9.78,9.881,0,21.171,0S42.343,9.78,42.343,25.649c.47,15.387-9.41,25.651-21.171,25.651C9.881,51.3,0,41.5,0,25.649Z" transform="translate(140.325 159.66)" fill="url(#linear-gradient-11)"/>
    <path id="Shape-3" data-name="Shape" d="M23.52,49.444V40.572H0V29.845L21.645,0H33.881V31.256h6.108v9.316H34.344v8.872Z" transform="translate(196.311 160.588)" fill="url(#linear-gradient-12)"/>
    <path id="Shape-4" data-name="Shape" d="M23.523,49.444V40.572H0V29.845L21.643,0H33.874V31.256h6.117v9.316H34.344v8.872Z" transform="translate(83.398 160.588)" fill="url(#linear-gradient-13)"/>
    <path id="Shape-5" data-name="Shape" d="M0,25.649C0,9.78,9.879,0,21.171,0s21.17,9.78,21.17,25.649C42.813,41.036,32.933,51.3,21.171,51.3,9.879,51.3,0,41.5,0,25.649Z" transform="translate(136.092 159.66)" fill="url(#linear-gradient-14)"/>
    <path id="Shape-6" data-name="Shape" d="M23.52,49.444V40.572H0V29.845L21.645,0H33.881V31.256h6.108v9.316H34.344v8.872Z" transform="translate(192.078 160.588)" fill="url(#linear-gradient-15)"/>
  </g>
</svg>
