<svg xmlns="http://www.w3.org/2000/svg" xmlns:xlink="http://www.w3.org/1999/xlink" width="261.454" height="197.02" viewBox="0 0 261.454 197.02">
  <defs>
    <linearGradient id="linear-gradient" x1="-0.001" y1="0.5" x2="1" y2="0.5" gradientUnits="objectBoundingBox">
      <stop offset="0" stop-color="#b0bacc"/>
      <stop offset="1" stop-color="#969eae"/>
    </linearGradient>
    <linearGradient id="linear-gradient-2" x1="0.5" y1="-0.023" x2="0.5" y2="1.011" gradientUnits="objectBoundingBox">
      <stop offset="0" stop-color="#fdfeff"/>
      <stop offset="0.996" stop-color="#ecf0f5"/>
    </linearGradient>
    <filter id="Path" x="0" y="24.58" width="162.182" height="172.44" filterUnits="userSpaceOnUse">
      <feOffset dy="11" input="SourceAlpha"/>
      <feGaussianBlur stdDeviation="11" result="blur"/>
      <feFlood flood-color="#657a93" flood-opacity="0.271"/>
      <feComposite operator="in" in2="blur"/>
      <feComposite in="SourceGraphic"/>
    </filter>
    <filter id="Path-2" x="103.852" y="23.658" width="157.602" height="166.886" filterUnits="userSpaceOnUse">
      <feOffset dy="11" input="SourceAlpha"/>
      <feGaussianBlur stdDeviation="11" result="blur-2"/>
      <feFlood flood-color="#657a93" flood-opacity="0.271"/>
      <feComposite operator="in" in2="blur-2"/>
      <feComposite in="SourceGraphic"/>
    </filter>
  </defs>
  <g id="card_feild" transform="translate(9.23)">
    <path id="Path-3" data-name="Path" d="M75.378,151.053A75.527,75.527,0,1,0,0,75.526,75.411,75.411,0,0,0,75.378,151.053Z" transform="translate(41.629 5.947)" fill="#eaeef9"/>
    <path id="Path-4" data-name="Path" d="M6.1,12.191A6.1,6.1,0,1,0,0,6.1,6.09,6.09,0,0,0,6.1,12.191Z" transform="translate(180.788 19.922)" fill="#eaeef9"/>
    <path id="Path-5" data-name="Path" d="M4.163,8.326A4.163,4.163,0,1,0,0,4.163,4.159,4.159,0,0,0,4.163,8.326Z" transform="translate(191.641)" fill="#eaeef9"/>
    <path id="Path-6" data-name="Path" d="M4.163,8.326A4.163,4.163,0,1,0,0,4.163,4.159,4.159,0,0,0,4.163,8.326Z" transform="translate(40.885 23.639)" fill="#eaeef9"/>
    <path id="Path-7" data-name="Path" d="M7.731,15.462A7.731,7.731,0,1,0,0,7.731,7.723,7.723,0,0,0,7.731,15.462Z" transform="translate(11.894 96.787)" fill="#eaeef9"/>
    <path id="Path-8" data-name="Path" d="M77.357,47.155a48.586,48.586,0,0,1-3.522,10.021A39.354,39.354,0,0,1,31.179,77.634,39.2,39.2,0,0,1,47.023.843,40.955,40.955,0,0,1,66.794,11.414,40.068,40.068,0,0,1,77.357,47.155Z" transform="translate(78.798 13.385)" fill="url(#linear-gradient)"/>
    <g transform="matrix(1, 0, 0, 1, -9.23, 0)" filter="url(#Path)">
      <path id="Path-9" data-name="Path" d="M85.033,64.391c-.18,0-.18.178-.36.178L67.947,72.3a2.859,2.859,0,0,1-2.337-5.218l11.509-5.218-3.6-1.249,5.755-16.369L66.689,37.406l4.136-16.354L53.56,17.083,59.315,3.6,55.9,0,7.343,22.3A12.488,12.488,0,0,0,1.228,39.027L28.563,99.091a12.487,12.487,0,0,0,16.724,6.125L93.3,83.272l2.877-15.284Z" transform="translate(33 46.58)" fill="url(#linear-gradient-2)"/>
    </g>
    <path id="Path-10" data-name="Path" d="M.282,9.173a2.824,2.824,0,0,0,3.776,1.442L20.784,2.884c.18,0,.18-.178.36-.178L13.23,0,1.721,5.218A3.081,3.081,0,0,0,.282,9.173Z" transform="translate(87.658 108.265)" fill="#d5ddea"/>
    <path id="Path-11" data-name="Path" d="M20.784,5.49,4.059,13.236A2.824,2.824,0,0,1,.282,11.794,2.818,2.818,0,0,1,1.721,8.017L18.446.286a2.818,2.818,0,0,1,3.776,1.427A2.818,2.818,0,0,1,20.784,5.49Z" transform="translate(60.683 118.058)" fill="#d5ddea"/>
    <g transform="matrix(1, 0, 0, 1, -9.23, 0)" filter="url(#Path-2)">
      <path id="Path-12" data-name="Path" d="M79.564,90.647,91.39,25.423A12.424,12.424,0,0,0,81.218,10.838L20.345,0l.792,5.055L8.776,12.875l12,13.024L7.814,36.856l6.365,12.7L0,59.722,2.373,62.74l5.563.966a2.8,2.8,0,0,1-.568,5.56l7.126,9.485L3.46,89.517,64.9,100.667A12.39,12.39,0,0,0,79.564,90.647Z" transform="translate(136.85 45.66)" fill="url(#linear-gradient-2)"/>
    </g>
    <path id="Path-13" data-name="Path" d="M20.387,8.814,2.327,5.6a2.844,2.844,0,0,1-2.3-3.271A2.854,2.854,0,0,1,3.3.028L21.358,3.254a2.822,2.822,0,0,1-.971,5.56Z" transform="translate(143.553 111.597)" fill="#d5ddea"/>
    <path id="Path-14" data-name="Path" d="M20.387,8.818,2.327,5.592A2.822,2.822,0,0,1,3.3.031L21.358,3.243a2.844,2.844,0,0,1,2.3,3.271A2.7,2.7,0,0,1,20.387,8.818Z" transform="translate(172.739 116.752)" fill="#d5ddea"/>
    <path id="Path-15" data-name="Path" d="M21.414,12.705A10.792,10.792,0,1,0,8.887,21.418,10.8,10.8,0,0,0,21.414,12.705Z" transform="translate(183.707 68.976)" fill="#989fb0"/>
    <path id="Path-16" data-name="Path" d="M21.413,12.691A10.79,10.79,0,1,0,8.885,21.418,10.787,10.787,0,0,0,21.413,12.691Z" transform="translate(169.708 66.448)" fill="#d5ddea"/>
    <path id="Path-17" data-name="Path" d="M7.859,4.237A2.844,2.844,0,0,0,5.563.966L0,0,5.077,6.69A2.805,2.805,0,0,0,7.859,4.237Z" transform="translate(130.078 108.562)" fill="#d5ddea"/>
    <path id="Path-18" data-name="Path" d="M6.247,0A6.259,6.259,0,0,0,.018,6.765L2.049,28.709a4.261,4.261,0,0,0,4.2,3.925,4.26,4.26,0,0,0,4.2-3.925L12.477,6.765A6.189,6.189,0,0,0,6.247,0Z" transform="translate(112.363 30.315)" fill="#fff"/>
    <path id="Path-19" data-name="Path" d="M4.875,0A4.877,4.877,0,1,0,9.75,4.877,4.857,4.857,0,0,0,4.875,0Z" transform="translate(113.736 67.007)" fill="#fff"/>
    <path id="Path-20" data-name="Path" d="M0,4.654,13.758,0" transform="translate(224.498 59.871)" fill="none" stroke="#989fb0" stroke-miterlimit="10" stroke-width="2"/>
    <path id="Path-21" data-name="Path" d="M0,16.964,14.2,0" transform="translate(221.315 37.406)" fill="none" stroke="#989fb0" stroke-miterlimit="10" stroke-width="2"/>
    <path id="Path-22" data-name="Path" d="M0,12.548,1.829,0" transform="translate(213.245 37.169)" fill="none" stroke="#989fb0" stroke-miterlimit="10" stroke-width="2"/>
    <path id="Path-23" data-name="Path" d="M5.755,13.306,0,0" transform="translate(18.523 51.084)" fill="none" stroke="#989fb0" stroke-miterlimit="10" stroke-width="2"/>
    <path id="Path-24" data-name="Path" d="M17.984,12.771,0,0" transform="translate(0 57.909)" fill="none" stroke="#989fb0" stroke-miterlimit="10" stroke-width="2"/>
    <path id="Path-25" data-name="Path" d="M12.768.984,0,.255" transform="translate(1.439 78.156)" fill="none" stroke="#989fb0" stroke-miterlimit="10" stroke-width="2"/>
    <path id="Path-26" data-name="Path" d="M25.136,17.494,8.99,24.646A2.681,2.681,0,0,1,5.7,23.04L.262,10.76a2.688,2.688,0,0,1,1.03-3.524l16-7.077a2.679,2.679,0,0,1,3.295,1.606l5.434,12.28A2.447,2.447,0,0,1,25.136,17.494Z" transform="translate(42.5 76.631)" fill="#d5ddea"/>
  </g>
</svg>
