<?xml version="1.0" encoding="utf-8"?>
<!-- Generator: Adobe Illustrator 27.3.1, SVG Export Plug-In . SVG Version: 6.00 Build 0)  -->
<svg version="1.1" id="Capa_1" xmlns="http://www.w3.org/2000/svg" xmlns:xlink="http://www.w3.org/1999/xlink" x="0px" y="0px"
	 viewBox="0 0 512 512" style="enable-background:new 0 0 512 512;" xml:space="preserve">
<style type="text/css">
	.st0{fill:#A9A9A9;}
</style>
<g>
	<g>
		<path class="st0" d="M460,395c0-0.1-0.1-0.2-0.1-0.3c-9.2-21.5-30.8-29.5-56.3-20.8l-69.7,19.3c-4-12.2-14.1-22.6-28.3-27.9
			c-0.1,0-0.2-0.1-0.3-0.1l-76.6-26c-6.4-8.2-26.3-29.3-63.7-29.3c-26.1,0-49.2,17.9-62.5,37.5H10c-5.5,0-10,4.5-10,10v126.1
			c0,5.5,4.5,10,10,10h59.5c5.5,0,10-4.5,10-10v-8.6h27.9c5.5,0,10-4.5,10-10V462c16.3,1.4,21.6,4.5,36.5,13.1
			c11.5,6.6,28.8,16.6,60.1,30.7c0.1,0.1,0.3,0.1,0.4,0.2c6,2.4,17.7,6.1,32.2,6.1c10.1,0,21.4-1.8,33.1-7.1l154-55.1
			c0.3-0.1,0.5-0.2,0.8-0.3C449.2,442.6,471.1,423.6,460,395z M59.5,473.5H20V367.4h39.5V473.5z M97.3,454.8H79.5v-87.4h17.9
			L97.3,454.8L97.3,454.8z M426.5,431.1l-153.9,55.1c-0.1,0-0.3,0.1-0.5,0.2c-0.1,0.1-0.3,0.1-0.4,0.2c-21.4,9.9-41.8,4-49.8,0.8
			c-30.2-13.6-46.3-22.9-58.1-29.7c-16.4-9.4-24.2-14-46.5-15.8v-80.5c9.5-15.5,27.9-31.4,47.7-31.4c34,0,48.4,22.1,49,23
			c1.2,2,3.1,3.5,5.3,4.2l79.5,27c12.7,4.8,19.4,15.6,16.3,26.5c-1.4,5-4.7,9.2-9.3,11.7c-4.5,2.5-9.7,3.1-14.7,1.8l-89.6-28.4
			c-5.3-1.7-10.9,1.2-12.6,6.5c-1.7,5.3,1.2,10.9,6.5,12.6l89.7,28.4c0.1,0,0.2,0.1,0.3,0.1c3.6,1,7.2,1.5,10.9,1.5
			c6.6,0,13.2-1.7,19.2-5c9.2-5.1,15.9-13.5,18.8-23.7c0.2-0.8,0.4-1.6,0.6-2.4L410,393c10.8-3.7,25.1-5,31.4,9.6
			C448,419.5,430.9,429,426.5,431.1z"/>
	</g>
</g>
<g>
	<g>
		<path class="st0" d="M502,33.9h-59.5c-5.5,0-10,4.5-10,10v8.6h-27.9c-5.5,0-10,4.5-10,10v2.9c-16.3-1.4-21.6-4.5-36.5-13.1
			c-11.5-6.6-28.8-16.6-60.1-30.7c-0.1-0.1-0.3-0.1-0.4-0.2c-10.2-4-36.8-11.9-65.3,1l-40.2,14.4L158.2,3c-3.9-4-10.3-4-14.2,0
			L32.7,114.3c-3.6,3.6-4.3,9.8,0,14.1L223,318.7c3,3,10.2,4,14.1,0L338.8,217c2.6,0.2,5.4,0.4,8.2,0.4c26.1,0,49.2-17.9,62.5-37.5
			H502c5.5,0,10-4.5,10-10v-126C512,38.4,507.5,33.9,502,33.9z M151.1,24.2L173.9,47c-6.8,4.2-14.6,6.4-22.8,6.4s-16-2.2-22.8-6.4
			L151.1,24.2z M76.7,144.2l-22.8-22.8l22.8-22.8c4.2,6.8,6.4,14.6,6.4,22.8S80.9,137.4,76.7,144.2z M230,297.5l-22.8-22.8
			c13.9-8.6,31.7-8.6,45.6,0L230,297.5z M267.2,260.3c-22.1-16-52.3-16-74.4,0L91.1,158.6c7.8-10.7,12-23.6,12-37.2
			s-4.2-26.5-12-37.2l22.8-22.8c10.7,7.8,23.6,12,37.2,12c13.6,0,26.5-4.2,37.2-12L209.9,83c-4.7,0.7-9.2,2.2-13.5,4.6
			c-7.2,4-12.8,10-16.3,17.2c-11.3,2.1-21.7,7.6-29.9,15.7c-22.2,22.2-22.2,58.4,0,80.6c11.1,11.1,25.7,16.7,40.3,16.7
			s29.2-5.6,40.3-16.7c7.2-7.2,12.3-16.1,14.8-25.8l33.8,11.5c-3.8,17.6,0.1,36.1,10.6,50.7L267.2,260.3z M206.4,162
			c0.1,0,0.2,0.1,0.3,0.1l20,6.8c-1.5,6.8-4.9,13.1-10,18.1c-14.4,14.4-37.9,14.4-52.3,0s-14.4-37.9,0-52.3c3.5-3.5,7.6-6.2,12.1-8
			C178.3,142,189.4,155.7,206.4,162z M304.5,223.1c-3.9-6.3-6-13.5-6.4-20.8c4.8,3.5,10.6,6.9,17.6,9.5L304.5,223.1z M394.7,166
			c-9.5,15.5-27.9,31.4-47.7,31.4c-3.7,0-7.2-0.3-10.4-0.7l0,0c-21.6-3.1-33.2-15.4-37-20.3c-0.2-0.3-1.1-1.4-1.2-1.6
			c-1.2-2.1-3.1-3.8-5.5-4.6l-79.5-27c-12.7-4.8-19.4-15.6-16.3-26.5l0,0l0,0c1.4-5,4.7-9.1,9.2-11.7c4.5-2.5,9.7-3.1,14.7-1.8
			l89.6,28.4c5.3,1.7,10.9-1.2,12.6-6.5s-1.2-10.9-6.5-12.6L245.2,90l-0.6-0.6l0,0l-36.9-36.9l31.7-11.4c0.1,0,0.2-0.1,0.3-0.1h0.1
			c0.1-0.1,0.3-0.1,0.4-0.2c21.4-9.9,41.8-4,49.8-0.8c30.2,13.6,46.3,22.9,58.1,29.7c16.4,9.4,24.2,14,46.5,15.8V166H394.7z
			 M432.5,160h-17.9V72.5h17.9V160z M492,160h-39.5V53.9H492V160z"/>
	</g>
</g>
</svg>
