<svg xmlns="http://www.w3.org/2000/svg" xmlns:xlink="http://www.w3.org/1999/xlink" width="212.099" height="174.099" viewBox="0 0 212.099 174.099">
  <defs>
    <filter id="Path" x="10.122" y="0" width="175.474" height="174.099" filterUnits="userSpaceOnUse">
      <feOffset dy="11" input="SourceAlpha"/>
      <feGaussianBlur stdDeviation="11" result="blur"/>
      <feFlood flood-color="#657a93" flood-opacity="0.271"/>
      <feComposite operator="in" in2="blur"/>
      <feComposite in="SourceGraphic"/>
    </filter>
    <linearGradient id="linear-gradient" x1="0.001" y1="0.5" x2="1.001" y2="0.5" gradientUnits="objectBoundingBox">
      <stop offset="0" stop-color="#b0bacc"/>
      <stop offset="1" stop-color="#969eae"/>
    </linearGradient>
  </defs>
  <g id="error_id_order" transform="translate(0 1.36)">
    <path id="Path-2" data-name="Path" d="M6.42,12.841A6.42,6.42,0,1,0,0,6.42,6.415,6.415,0,0,0,6.42,12.841Z" transform="translate(182.906 110.088)" fill="#eaeef9"/>
    <path id="Path-3" data-name="Path" d="M4.385,8.769A4.385,4.385,0,1,0,0,4.385,4.381,4.381,0,0,0,4.385,8.769Z" transform="translate(172.611 132.074)" fill="#eaeef9"/>
    <path id="Path-4" data-name="Path" d="M4.385,8.769A4.385,4.385,0,1,0,0,4.385,4.382,4.382,0,0,0,4.385,8.769Z" transform="translate(30.537 24.899)" fill="#eaeef9"/>
    <path id="Path-5" data-name="Path" d="M8.143,16.286A8.143,8.143,0,1,0,0,8.143,8.145,8.145,0,0,0,8.143,16.286Z" transform="translate(0 101.945)" fill="#eaeef9"/>
    <path id="Path-6" data-name="Path" d="M79.395,159.1A79.552,79.552,0,1,0,0,79.552,79.43,79.43,0,0,0,79.395,159.1Z" transform="translate(27.639)" fill="#eaeef9"/>
    <path id="Path-7" data-name="Path" d="M99.006,0a4.289,4.289,0,0,1,4.36,4.338V132.325a4.293,4.293,0,0,1-4.36,4.338H4.361A4.3,4.3,0,0,1,0,132.325V4.338A4.293,4.293,0,0,1,4.361,0Z" transform="translate(54.137 11.964)" fill="#ced7e2"/>
    <path id="Path-8" data-name="Path" d="M98.459,4.886V123.649a4.293,4.293,0,0,1-4.36,4.338H7.629L0,120.392,85.925,2.725,93.373,0Z" transform="translate(59.044 20.452)" fill="#bcc4cf"/>
    <path id="Path-9" data-name="Path" d="M93.736,1.456A1.439,1.439,0,0,0,92.283,0H1.453A1.435,1.435,0,0,0,0,1.456v117.5a1.426,1.426,0,0,0,1.453,1.441H92.1a1.422,1.422,0,0,0,1.453-1.441Z" transform="translate(59.044 20.452)" fill="#d9dfee"/>
    <path id="Path-10" data-name="Path" d="M97.371,1.456A1.439,1.439,0,0,0,95.918,0H5.088A1.435,1.435,0,0,0,3.635,1.456C4.725,48.263,5.088,101.24,0,114.974l87.015-1.268C92.284,89.84,96.281,47.011,97.371,1.456Z" transform="translate(55.409 20.452)" fill="#eff3fb"/>
    <g transform="matrix(1, 0, 0, 1, 0, -1.36)" filter="url(#Path)">
      <path id="Path-11" data-name="Path" d="M109.474,0s-.182,7.047-2.361,52.053v.908c-2.725,44.114-41.963,53.321-46.686,53.87-2.18.188-6.358.548-13.806.548-9.266.36-23.435.532-45.6.72a.993.993,0,0,1-.908-1.456C15.374,76.106,15.556.172,15.556.172Z" transform="translate(43.12 22)" fill="#fff"/>
    </g>
    <path id="Path-12" data-name="Path" d="M60.494,0C57.95,44.1,18.53,53.321,13.807,53.854c-2.18.188-6.359.548-13.807.548C19.62,45.366,30.156,29.1,29.974,16.443,39.42,17.163,55.771,16.443,60.494,0Z" transform="translate(89.561 73.429)" fill="#eaeef9"/>
    <path id="Path-13" data-name="Path" d="M42.69,6.687h0l-.908-.908a1.452,1.452,0,0,0-.727.548H26.886V5.418A5.566,5.566,0,0,0,21.437,0a5.568,5.568,0,0,0-5.451,5.418c0,.36,0,.548.182.72H1.453A1.485,1.485,0,0,0,0,7.767v4.7c0,3.617,2.543,5.794,5.995,5.794H36.151c3.633,0,6.721-2.177,6.721-5.794V7.595A.8.8,0,0,0,42.69,6.687Z" transform="translate(85.202 5.638)" fill="#1c3754"/>
    <path id="Path-14" data-name="Path" d="M43.053,7.767v5.606A6.605,6.605,0,0,1,36.7,18.98H6.358A6.605,6.605,0,0,1,0,13.373V7.767A1.589,1.589,0,0,1,1.453,6.139h14.9v-.72A5.567,5.567,0,0,1,21.8,0a5.566,5.566,0,0,1,5.45,5.418v.72h14.9A1.811,1.811,0,0,1,43.053,7.767Z" transform="translate(84.293 4.557)" fill="url(#linear-gradient)"/>
    <path id="Path-15" data-name="Path" d="M2.545,5.058A2.473,2.473,0,0,0,5.088,2.537,2.486,2.486,0,0,0,2.545,0,2.486,2.486,0,0,0,0,2.537,2.588,2.588,0,0,0,2.545,5.058Z" transform="translate(103.185 7.438)" fill="#eaeef9"/>
    <path id="Path-16" data-name="Path" d="M42.872,0a6.605,6.605,0,0,1-6.358,5.606H6.358A6.605,6.605,0,0,1,0,0Z" transform="translate(84.293 17.93)" fill="#9aa1b2"/>
    <path id="Path-17" data-name="Path" d="M77.569,0a116.93,116.93,0,0,1-2,57.111C74.3,60.916,73.028,65.066,70.3,67.963a16.86,16.86,0,0,1-16.35,5.058A16.032,16.032,0,0,1,42.327,60.368c-.908-3.79.363-8.315,3.633-10.664a9.6,9.6,0,0,1,11.262,1.081,13.093,13.093,0,0,1,4.36,10.852,25.447,25.447,0,0,1-3.633,11.385A51.233,51.233,0,0,1,28.521,97.059,50.93,50.93,0,0,1,0,97.419" transform="translate(126.802 21.188)" fill="none" stroke="#c9d4e2" stroke-miterlimit="10" stroke-width="2" stroke-dasharray="4"/>
    <path id="Path-18" data-name="Path" d="M8.588,4.541C8.043,6.53,5.863,7.25,3.684,6,1.322,4.9-.313,4.008.051,2.192.6.391,2.775.2,5.318.031,8.407-.329,8.952,2.552,8.588,4.541Z" transform="translate(203.412 11.213)" fill="#dae2eb"/>
    <path id="Path-19" data-name="Path" d="M.421,4.913c.908,1.629,3.451,2.709,5.268,1.081,2-1.8,3.633-3.069,2.725-4.886C7.505-.521,6.052.027,2.964.387.421.935-.669,3.1.421,4.913Z" transform="translate(193.959 12.658)" fill="#dae2eb"/>
    <path id="Path-20" data-name="Path" d="M2.18.03A2.664,2.664,0,0,1,5.086,1.643,3.435,3.435,0,0,1,5.45,2.911c.363,2.537-.545,4.7-2,4.886C1.817,8.157.182,6.356,0,4.007V2.379A2.505,2.505,0,0,1,2.18.03Z" transform="translate(200.193 10.854)" fill="#989fb0"/>
  </g>
</svg>
