<svg xmlns="http://www.w3.org/2000/svg" width="94.08" height="75.771" viewBox="0 0 94.08 75.771">
  <g id="Group_74051" data-name="Group 74051" transform="translate(-189.838 -117.817)">
    <path id="Path" d="M1.558,63.022l37.2-58.873a10.348,10.348,0,0,1,16.571,0l37.2,58.873c3.92,5.282,0,12.749-6.7,12.749H8.39C1.558,75.657-2.362,68.3,1.558,63.022Z" transform="translate(189.838 117.817)" fill="#f04438"/>
    <path id="Path-2" data-name="Path" d="M6.055,0A6.187,6.187,0,0,0,.018,6.761L1.987,28.708a4.184,4.184,0,0,0,4.068,3.939,4.184,4.184,0,0,0,4.068-3.939L12.093,6.761A6.115,6.115,0,0,0,6.055,0Z" transform="translate(230.821 137.037)" fill="#fff"/>
    <path id="Path-3" data-name="Path" d="M4.726,0A4.8,4.8,0,0,0,0,4.895,4.78,4.78,0,0,0,4.726,9.767,4.78,4.78,0,0,0,9.452,4.895,4.8,4.8,0,0,0,4.726,0Z" transform="translate(232.151 173.736)" fill="#fff"/>
  </g>
</svg>
