<svg xmlns="http://www.w3.org/2000/svg" xmlns:xlink="http://www.w3.org/1999/xlink" width="235.438" height="208.67" viewBox="0 0 235.438 208.67">
  <defs>
    <filter id="Path" x="0" y="38.677" width="235.438" height="169.993" filterUnits="userSpaceOnUse">
      <feOffset dy="11" input="SourceAlpha"/>
      <feGaussianBlur stdDeviation="11" result="blur"/>
      <feFlood flood-color="#657a93" flood-opacity="0.271"/>
      <feComposite operator="in" in2="blur"/>
      <feComposite in="SourceGraphic"/>
    </filter>
  </defs>
  <g id="no_address" transform="translate(29.542)">
    <path id="Path-2" data-name="Path" d="M79.512,159.338A79.669,79.669,0,1,0,0,79.669,79.548,79.548,0,0,0,79.512,159.338Z" transform="translate(9.882 31.836)" fill="#eaeef9"/>
    <path id="Path-3" data-name="Path" d="M6.43,12.86A6.43,6.43,0,1,0,0,6.43,6.429,6.429,0,0,0,6.43,12.86Z" transform="translate(171.577 73.709)" fill="#eaeef9"/>
    <path id="Path-4" data-name="Path" d="M4.391,8.782A4.391,4.391,0,1,0,0,4.391,4.394,4.394,0,0,0,4.391,8.782Z" transform="translate(183.025 52.538)" fill="#eaeef9"/>
    <path id="Path-5" data-name="Path" d="M4.391,8.782A4.391,4.391,0,1,0,0,4.391,4.387,4.387,0,0,0,4.391,8.782Z" transform="translate(0 82.335)" fill="#eaeef9"/>
    <g transform="matrix(1, 0, 0, 1, -29.54, 0)" filter="url(#Path)">
      <path id="Path-6" data-name="Path" d="M163.916,101.829l-37.7-14.4L84.846,103.993,39.924,87.306,5.546,100.449A4.1,4.1,0,0,1,.159,95.54L21.59,21.611a8.615,8.615,0,0,1,4.7-5.489L60.666,0l24.18,17.377L108.454,2.415l38.039,16.671a8.624,8.624,0,0,1,4.94,5.944l17.878,72.11A4.041,4.041,0,0,1,163.916,101.829Z" transform="translate(33 60.68)" fill="#fff"/>
    </g>
    <path id="Path-7" data-name="Path" d="M60.666,0,39.924,87.181,5.546,100.323A4.1,4.1,0,0,1,.159,95.414L21.59,21.486A8.615,8.615,0,0,1,26.288,16Z" transform="translate(3.458 60.802)" fill="#e7eaf1"/>
    <path id="Path-8" data-name="Path" d="M55.472,99.3l-37.7-14.4L0,0,38.048,16.687a8.533,8.533,0,0,1,4.924,5.944L60.851,94.74A3.942,3.942,0,0,1,55.472,99.3Z" transform="translate(111.682 63.657)" fill="#fff"/>
    <path id="Path-9" data-name="Path" d="M41.478,85.017,0,101.578V14.961L23.607,0Z" transform="translate(88.304 63.092)" fill="#e7eaf1"/>
    <path id="Shape" d="M29.007,31.163c-.457-.11-.8-.11-1.26-.234a2.323,2.323,0,0,1-1.719-2.745,2.281,2.281,0,0,1,2.751-1.709c.343.11.686.11,1.03.236a2.218,2.218,0,0,1,1.835,2.618,2.045,2.045,0,0,1-2.179,1.835Zm8.48-.234a2.252,2.252,0,0,1-.459-4.455,3.465,3.465,0,0,1,1.032-.22,2.271,2.271,0,1,1,1.375,4.329c-.459.126-.8.236-1.259.346ZM19.838,27.384c-.343-.219-.686-.454-1.03-.673a2.3,2.3,0,0,1,2.635-3.78,4.231,4.231,0,0,0,.917.58,2.339,2.339,0,0,1,.687,3.2,2.407,2.407,0,0,1-3.21.673ZM43.789,26.13a2.268,2.268,0,0,1,.689-3.2c.343-.22.573-.346.916-.565A2.3,2.3,0,1,1,48.03,26.13c-.344.234-.689.454-1.032.689a4.189,4.189,0,0,1-1.262.346A2.4,2.4,0,0,1,43.789,26.13Zm59.7-1.711a2.353,2.353,0,0,1-2.289-2.164,2.228,2.228,0,0,1,2.179-2.4,2.647,2.647,0,0,0,.926-.126,2.263,2.263,0,1,1,.8,4.455c-.454.126-.925.126-1.379.234Zm-8.7-3.088a2.97,2.97,0,0,1-.916-.8,2.267,2.267,0,1,1,2.978-3.419c.231.219.574.454.8.673a2.215,2.215,0,0,1,.344,3.2,2.655,2.655,0,0,1-1.833.8A2,2,0,0,1,94.785,21.331Zm-82.279-.22a6.837,6.837,0,0,1-.8-.926,2.2,2.2,0,0,1,.114-3.2,2.311,2.311,0,0,1,3.208.126,6.134,6.134,0,0,0,.8.8,2.206,2.206,0,0,1-.114,3.2,2.265,2.265,0,0,1-1.6.675A2.081,2.081,0,0,1,12.505,21.111Zm38.733-.454a2.331,2.331,0,0,1,.229-3.215,4.905,4.905,0,0,0,.8-.675,2.267,2.267,0,1,1,2.98,3.419,7.127,7.127,0,0,0-.916.8,1.824,1.824,0,0,1-1.375.47A2.081,2.081,0,0,1,51.238,20.657Zm58.789-.58a2.36,2.36,0,0,1,.69-3.2c.346-.236.565-.344.91-.565a2.3,2.3,0,1,1,2.634,3.764c-.344.234-.69.454-1.019.69a3.239,3.239,0,0,1-1.27.344A2.241,2.241,0,0,1,110.027,20.076Zm7.45-5.364a2.307,2.307,0,0,1,.236-3.2c.219-.236.565-.47.8-.69a2.267,2.267,0,1,1,2.98,3.419,7.08,7.08,0,0,0-.924.8,1.651,1.651,0,0,1-1.365.47A2.084,2.084,0,0,1,117.477,14.713Zm-29.567.109a5.55,5.55,0,0,1-.8-.8,2.266,2.266,0,1,1,3.1-3.31c.343.22.573.565.917.8a2.314,2.314,0,0,1,.114,3.2,2.419,2.419,0,0,1-1.719.8A2.275,2.275,0,0,1,87.91,14.822ZM58,14.587a2.2,2.2,0,0,1,0-3.2l.8-.8a2.269,2.269,0,0,1,3.323,3.09l-.8.8a2.082,2.082,0,0,1-1.719.8A2.283,2.283,0,0,1,58,14.587ZM6.432,13.913c-.23-.344-.459-.58-.689-.926a2.231,2.231,0,0,1,.459-3.2,2.254,2.254,0,0,1,3.21.454l.686.926a2.231,2.231,0,0,1-.457,3.2,3.384,3.384,0,0,1-1.376.454A2.409,2.409,0,0,1,6.432,13.913ZM81.149,9.224c-.344-.236-.573-.454-.917-.69a2.216,2.216,0,0,1-.457-3.2,2.238,2.238,0,0,1,3.208-.454c.343.236.573.454.916.69a2.232,2.232,0,0,1,.46,3.2,2.417,2.417,0,0,1-1.835.909A2.192,2.192,0,0,1,81.149,9.224Zm43.2-.454a2.2,2.2,0,0,1,.126-3.2l.8-.8a2.2,2.2,0,0,1,3.2.11,2.191,2.191,0,0,1-.11,3.2l-.8.8a2.15,2.15,0,0,1-1.489.565A2.551,2.551,0,0,1,124.346,8.769ZM64.3,7.969a2.207,2.207,0,0,1-.114-3.2c.229-.344.572-.58.8-.925a2.227,2.227,0,0,1,3.21,0,2.2,2.2,0,0,1,0,3.2,4.72,4.72,0,0,1-.8.8,1.817,1.817,0,0,1-1.491.69A2.723,2.723,0,0,1,64.3,7.969ZM1.044,6.244l-.687-.91a2.369,2.369,0,0,1,.687-3.2,2.37,2.37,0,0,1,3.208.689l.574.91a2.264,2.264,0,0,1-.689,3.2,1.682,1.682,0,0,1-1.145.344A2.25,2.25,0,0,1,1.044,6.244ZM73.929,4.769c-.344-.126-.573-.126-.8-.234A2.192,2.192,0,0,1,71.407,1.79,2.243,2.243,0,0,1,74.158.08a5.945,5.945,0,0,1,1.375.454,2.333,2.333,0,0,1,1.376,2.98,2.563,2.563,0,0,1-2.176,1.365A2.021,2.021,0,0,1,73.929,4.769Z" transform="translate(21.825 97.059)" fill="#cbd4e0"/>
    <path id="Path-10" data-name="Path" d="M38.161,0A37.858,37.858,0,0,1,76.095,37.827c0,16.687-24.067,49.715-33.922,62.512a5.163,5.163,0,0,1-8.251,0C24.065,87.542,0,54.514,0,37.827A38.2,38.2,0,0,1,38.161,0Z" transform="translate(50.143)" fill="#cbd4e0"/>
    <path id="Path-11" data-name="Path" d="M15.012,29.939A14.969,14.969,0,1,0,0,14.977,14.986,14.986,0,0,0,15.012,29.939Z" transform="translate(73.292 22.74)" fill="#a5b0be"/>
  </g>
</svg>
