<svg xmlns="http://www.w3.org/2000/svg" width="181.181" height="164.548" viewBox="0 0 181.181 164.548">
  <g id="no_fav" transform="translate(-22.555 -30.523)">
    <path id="Path" d="M115.844,58.39A58.774,58.774,0,0,1,104.1,93.645a57.911,57.911,0,0,1-46.18,23.016C25.969,116.77,0,90.7,0,58.39,0,26.187,25.856,0,57.922,0A57.835,57.835,0,0,1,104.1,23.016,59.085,59.085,0,0,1,115.844,58.39Z" transform="translate(22.555 30.523)" fill="#eaeef9" opacity="0.46"/>
    <path id="Path_67171" data-name="Path 67171" d="M203.589,93.255c0,23.6-13.076,47.822-38.858,72.042a232.919,232.919,0,0,1-38.045,29,5.763,5.763,0,0,1-5.763,0c-3.176-1.851-76.9-45.586-76.9-101.044a47.844,47.844,0,0,1,6.179-23.6A45.258,45.258,0,0,1,67.038,52.645a42.725,42.725,0,0,1,45.169,1.58,3.03,3.03,0,0,1,.906.984,3.2,3.2,0,0,1,.246,2.651,3.106,3.106,0,0,1-.708,1.147l-13.3,13.884a6.366,6.366,0,0,0,0,8.716l25.413,26.457-11.081,11.647a6.111,6.111,0,0,0-1.3,1.994,6.338,6.338,0,0,0,0,4.728,6.111,6.111,0,0,0,1.3,1.994,5.784,5.784,0,0,0,4.137,1.774,6,6,0,0,0,4.211-1.774l15.292-15.967a6.366,6.366,0,0,0,0-8.716L111.911,77.211,127.942,60.55a43.749,43.749,0,0,1,14.352-10.081,42.2,42.2,0,0,1,16.971-3.495A43.4,43.4,0,0,1,190.607,60.53,47.335,47.335,0,0,1,203.589,93.255Z" transform="translate(-6.954)" fill="#b7bfd4"/>
    <circle id="Ellipse_1075" data-name="Ellipse 1075" cx="31.51" cy="31.51" r="31.51" transform="translate(139.716 124.426)" fill="#989fb0" stroke="#fff" stroke-width="2"/>
    <path id="Path_67172" data-name="Path 67172" d="M279.016,234.368a3.576,3.576,0,0,1,5.057,0l15.7,15.7a3.1,3.1,0,0,1,0,4.389h0a3.724,3.724,0,0,1-5.266,0l-15.492-15.492a3.252,3.252,0,0,1,0-4.6Z" transform="translate(-118.087 -88.497)" fill="#fff"/>
    <rect id="Rectangle_9725" data-name="Rectangle 9725" width="28.69" height="6.524" rx="3.262" transform="translate(163.595 143.48) rotate(45)" fill="#fff"/>
    <path id="Path_67173" data-name="Path 67173" d="M279.368,254.615a3.576,3.576,0,0,1,0-5.057l15.7-15.7a3.1,3.1,0,0,1,4.388,0h0a3.724,3.724,0,0,1,0,5.266l-15.492,15.492a3.252,3.252,0,0,1-4.6,0Z" transform="translate(-118.209 -88.32)" fill="#fff"/>
  </g>
</svg>
