<?xml version="1.0" encoding="utf-8"?>
<!-- Generator: Adobe Illustrator 27.3.1, SVG Export Plug-In . SVG Version: 6.00 Build 0)  -->
<svg version="1.1" id="Layer_1" xmlns="http://www.w3.org/2000/svg" xmlns:xlink="http://www.w3.org/1999/xlink" x="0px" y="0px"
	 viewBox="0 0 512 512" style="enable-background:new 0 0 512 512;" xml:space="preserve">
<style type="text/css">
	.st0{fill-rule:evenodd;clip-rule:evenodd;fill:#A9A9A9;}
</style>
<g id="Icon">
	<path class="st0" d="M250.7,432.3H68.3c-1.1,0-2.2-0.5-3-1.3c-0.8-0.8-1.3-1.9-1.3-3c0,0,0-30.9,0-30.9c0-17.7,12.7-33.3,32.1-46.6
		c34.8-23.8,91.2-38.7,154.5-38.7c8.8,0,16-7.2,16-16c0-8.8-7.2-16-16-16c-70.9,0-133.6,17.7-172.6,44.3c-29.7,20.3-46.1,46-46.1,73
		v31c0,9.6,3.8,18.8,10.6,25.6c6.8,6.8,16,10.6,25.6,10.6h182.4c8.8,0,16-7.2,16-16C266.7,439.4,259.5,432.3,250.7,432.3
		L250.7,432.3z"/>
	<path class="st0" d="M250.7,26.7c-64.8,0-117.3,52.6-117.3,117.3s52.6,117.3,117.3,117.3S368,208.8,368,144S315.4,26.7,250.7,26.7z
		 M250.7,58.7c47.1,0,85.3,38.2,85.3,85.3s-38.2,85.3-85.3,85.3s-85.3-38.2-85.3-85.3S203.6,58.7,250.7,58.7z"/>
	<path class="st0" d="M362.7,373.3v53.3c0,8.8,7.2,16,16,16c8.8,0,16-7.2,16-16v-53.3c0-8.8-7.2-16-16-16
		C369.8,357.3,362.7,364.5,362.7,373.3z"/>
	<circle class="st0" cx="378.7" cy="325.3" r="21.3"/>
	<path class="st0" d="M378.7,261.3c-61.8,0-112,50.2-112,112s50.2,112,112,112s112-50.2,112-112S440.5,261.3,378.7,261.3z
		 M378.7,293.3c44.2,0,80,35.8,80,80s-35.8,80-80,80s-80-35.8-80-80S334.5,293.3,378.7,293.3z"/>
</g>
</svg>
