<svg xmlns="http://www.w3.org/2000/svg" xmlns:xlink="http://www.w3.org/1999/xlink" width="119.771" height="86.061" viewBox="0 0 119.771 86.061">
  <defs>
    <linearGradient id="linear-gradient" y1="0.5" x2="1.002" y2="0.5" gradientUnits="objectBoundingBox">
      <stop offset="0" stop-color="#d5dae8"/>
      <stop offset="1" stop-color="#9aa3ba"/>
    </linearGradient>
  </defs>
  <g id="Scheduled_Successfully" transform="translate(0.215)">
    <path id="Path" d="M39.985,80.237A40.119,40.119,0,1,0,0,40.118,40.053,40.053,0,0,0,39.985,80.237Z" transform="translate(19.55 5.823)" fill="#eaeef9"/>
    <path id="Path-2" data-name="Path" d="M5.119,5.33A3.063,3.063,0,0,0,.994.8,3.063,3.063,0,0,0,5.119,5.33Z" transform="translate(100.16 20.913)" fill="#eaeef9"/>
    <path id="Path-3" data-name="Path" d="M2.634,3.939A2.018,2.018,0,1,0,.1,2.643,2.02,2.02,0,0,0,2.634,3.939Z" transform="translate(33.793 5.323)" fill="#eaeef9"/>
    <path id="Path-4" data-name="Path" d="M1.791,2.683A1.379,1.379,0,0,0,2.669.948a1.368,1.368,0,1,0-.878,1.735Z" transform="translate(39.026 0)" fill="#eaeef9"/>
    <path id="Path-5" data-name="Path" d="M2.155,2.243A1.29,1.29,0,0,0,.419.335,1.3,1.3,0,0,0,.337,2.164,1.279,1.279,0,0,0,2.155,2.243Z" transform="translate(103.355 10.246)" fill="#eaeef9"/>
    <path id="Path-6" data-name="Path" d="M1.482,1.544A.893.893,0,0,0,1.539.287a.888.888,0,1,0-.057,1.256Z" transform="translate(72.27 1.32)" fill="#eaeef9"/>
    <path id="Path-7" data-name="Path" d="M0,.5H117.059" transform="translate(0 78.376)" fill="none" stroke="#d6dce8" stroke-miterlimit="10" stroke-width="2"/>
    <path id="Path-8" data-name="Path" d="M72.112,61.1H0L13.176,0H85.369Z" transform="translate(9.969 17.026)" fill="#fff"/>
    <path id="Path-9" data-name="Path" d="M72.112,61.1H0L13.176,0H85.369Z" transform="translate(9.969 17.026)" fill="#d5dae8"/>
    <path id="Path-10" data-name="Path" d="M19.733,61.1H4.8A4.83,4.83,0,0,1,.008,56.032L2.4,0H6Z" transform="translate(20.742 17.026)" fill="url(#linear-gradient)"/>
    <path id="Path-11" data-name="Path" d="M88,61.1H15.892L3.673,14.171l-.08-.322L0,0H72.192l3.114,12,.48,1.853.079.322Z" transform="translate(23.145 17.026)" fill="#fff"/>
    <path id="Path-12" data-name="Path" d="M75.786,13.849H3.593L0,0H72.192l3.114,12Z" transform="translate(23.145 17.026)" fill="#eff3fb"/>
    <path id="Path-13" data-name="Path" d="M2.555,5.15A2.575,2.575,0,1,0,0,2.575,2.561,2.561,0,0,0,2.555,5.15Z" transform="translate(39.596 21.776)" fill="#adb6c8" opacity="0.3"/>
    <path id="Path-14" data-name="Path" d="M2.555,5.15A2.575,2.575,0,1,0,0,2.575,2.561,2.561,0,0,0,2.555,5.15Z" transform="translate(81.761 21.776)" fill="#adb6c8" opacity="0.3"/>
    <path id="Path-15" data-name="Path" d="M5.431,16.1a.887.887,0,0,1,0-1.774c1.757,0,3.594-2.5,3.594-6.281V7.725C8.945,4.02,7.107,1.766,5.431,1.766c-1.6,0-3.354,2.175-3.593,5.558H0C.24,3.14,2.555,0,5.351,0c2.954,0,5.27,3.462,5.43,7.89v.236C10.861,12.554,8.466,16.1,5.431,16.1Z" transform="translate(36.082 9.301)" fill="#adb6c8"/>
    <path id="Path-16" data-name="Path" d="M5.431,16.1a.887.887,0,0,1,0-1.774c1.756,0,3.593-2.5,3.593-6.281V7.725C8.944,4.02,7.107,1.766,5.431,1.766c-1.6,0-3.355,2.175-3.594,5.558H0C.239,3.14,2.555,0,5.35,0c2.955,0,5.27,3.462,5.431,7.89v.236C10.86,12.554,8.465,16.1,5.431,16.1Z" transform="translate(78.009 9.301)" fill="#adb6c8"/>
    <path id="Path-17" data-name="Path" d="M0,.5H116.194" transform="translate(0.785 77.552)" fill="none" stroke="#d5dae8" stroke-linecap="round" stroke-linejoin="round" stroke-miterlimit="10" stroke-width="2"/>
    <path id="Path-18" data-name="Path" d="M.8,1.609a.8.8,0,0,1-.8-.8A.758.758,0,0,1,.8,0H3.274a.8.8,0,0,1,0,1.609Z" transform="translate(83.918 47.378)" fill="#d5dae8" opacity="0.3"/>
    <path id="Shape" d="M15.733,36.954a.965.965,0,0,1-.8-.565l-1.277-4.75H7.347a.8.8,0,0,1,0-1.61h5.83l-2-7.081H5.111a.809.809,0,0,1-.8-.809.757.757,0,0,1,.8-.8H10.7l-2-7.089H2.955a.8.8,0,0,1-.8-.8.758.758,0,0,1,.8-.808h5.35l-2-7.081H.8A.808.808,0,0,1,0,4.75a.756.756,0,0,1,.8-.8H5.83l-.8-2.9A.834.834,0,0,1,5.59.078h.24a.966.966,0,0,1,.8.565l.958,3.305h6.389a.756.756,0,0,1,.8.8.759.759,0,0,1-.8.809H8.066l2,7.081H20.124L16.93,1.044a.834.834,0,0,1,.559-.966h.24a.966.966,0,0,1,.8.565l.958,3.305H22.92a.756.756,0,0,1,.8.8.8.8,0,0,1-.8.809H19.965l2,7.081H28.75a.8.8,0,0,1,.8.808.757.757,0,0,1-.8.8H22.44l2,7.089H34.579L30.187,5.559H28.03a.8.8,0,0,1,0-1.61h1.677l-.8-2.9A.915.915,0,0,1,28.989.4a.823.823,0,0,1,.478-.4h.24a.963.963,0,0,1,.8.565l.958,3.3h1.677a.758.758,0,0,1,.8.808.756.756,0,0,1-.8.8h-1.2l2,7.09H44.082l-2-7.09H36.9a.8.8,0,0,1,0-1.609h4.471l-.8-2.9A.828.828,0,0,1,41.128,0h.239a.961.961,0,0,1,.8.565l.959,3.3H53.265l-.8-2.9A.828.828,0,0,1,53.026,0h.239a.961.961,0,0,1,.8.565l.959,3.3h6.229a.758.758,0,0,1,.8.808.756.756,0,0,1-.8.8h-5.99l2,7.09h5.989a.8.8,0,0,1,.8.8.759.759,0,0,1-.8.809H57.737l2,7.081h5.75a.808.808,0,0,1,.8.808.757.757,0,0,1-.8.8h-5.27l2,7.089h5.43a.8.8,0,0,1,0,1.61H62.609l1.2,4.263a.823.823,0,0,1-.559.966h-.24a.956.956,0,0,1-.8-.557l-1.278-4.671H50.79l1.2,4.184a.915.915,0,0,1-.081.644.8.8,0,0,1-.478.4h-.24a.956.956,0,0,1-.8-.557L49.113,31.64H38.971l1.2,4.184a.824.824,0,0,1-.559.966h-.24a.955.955,0,0,1-.8-.557L37.294,31.64H27.152l1.2,4.184a.823.823,0,0,1-.559.966h-.24a.956.956,0,0,1-.8-.557L25.475,31.64H15.333l1.2,4.271a.915.915,0,0,1-.081.644.822.822,0,0,1-.479.4Z" transform="translate(34.964 34.738)" fill="#d5dae8"/>
    <path id="Path-19" data-name="Path" d="M16.244,0A16.291,16.291,0,1,0,22.46,1.24,16.269,16.269,0,0,0,16.244,0Z" transform="translate(87.068 53.573)" fill="#12b76a"/>
    <path id="Path-20" data-name="Path" d="M8.258,9.908H1.652A1.643,1.643,0,0,1,0,8.259V1.649a1.651,1.651,0,0,1,3.3,0V6.6H8.258a1.668,1.668,0,0,1,1.167.487A1.649,1.649,0,0,1,8.258,9.908Z" transform="translate(101.653 61.541)" fill="#fff"/>
  </g>
</svg>
