<svg id="signin" xmlns="http://www.w3.org/2000/svg" xmlns:xlink="http://www.w3.org/1999/xlink" width="119.546" height="138.648" viewBox="0 0 119.546 138.648">
  <defs>
    <linearGradient id="linear-gradient" y1="0.5" x2="1" y2="0.5" gradientUnits="objectBoundingBox">
      <stop offset="0" stop-color="#b0bacc"/>
      <stop offset="1" stop-color="#969eae"/>
    </linearGradient>
    <linearGradient id="linear-gradient-2" x1="0.5" y1="1.006" x2="0.5" y2="0.455" gradientUnits="objectBoundingBox">
      <stop offset="0" stop-color="#fff"/>
      <stop offset="1" stop-color="#e2e5ec"/>
    </linearGradient>
    <linearGradient id="linear-gradient-3" x1="0" y1="0.5" x2="1" y2="0.5" xlink:href="#linear-gradient"/>
  </defs>
  <path id="Path" d="M119.546,59.773A59.773,59.773,0,1,1,59.772,0,59.416,59.416,0,0,1,119.546,59.773Z" fill="#eaeef9"/>
  <path id="Path-2" data-name="Path" d="M90.475,87.215A59.844,59.844,0,0,1,0,88.762,28.842,28.842,0,0,1,7.073,84.8l2.177-.849c4.12-1.633,9.483-3.659,16.711-6.686a6.834,6.834,0,0,0,3.653-3.572,7.111,7.111,0,0,0,.622-2.875V57.367a5.916,5.916,0,0,1-.622-.86,12.905,12.905,0,0,1-2.177-5.9l-1.166-.544c-3.5.849-3.264-2.875-4.12-10.029-.389-2.951.078-3.572,1.4-4.04l1.088-1.481C17.955,19.351,21.3,9.877,27.9,6.534,25.728,1.71,25.572,0,25.572,0S39.641,2.33,44.538,1.4C50.678.152,60.161,1.633,63.659,9.79c5.829,2.341,8.162,5.989,8.628,10.029.855,6.381-2.8,13.373-3.5,16.095.077.152.156.229.156.3.932.468,1.244,1.241.932,3.811-.855,6.762-.622,10.955-4.12,10.029l-3.109,5.434a12.268,12.268,0,0,0-.233,1.329c-.156,1.013-.077,3.027-.077,14.146a7.153,7.153,0,0,0,1.088,3.724,6.984,6.984,0,0,0,3.265,2.722.245.245,0,0,1,.156.076c8,3.343,13.757,5.521,17.955,7.155A29.244,29.244,0,0,1,90.475,87.215Z" transform="translate(15.235 10.879)" fill="#fff"/>
  <path id="Path-3" data-name="Path" d="M47.8,35.838c.31-1.71-.467-3.811-1.089-5.292a8.12,8.12,0,0,1-.31-.773c-2.72-5.445-8.705-7.623-14.457-7.928-14.691-.784-16.012,2.015-20.6-2.178,1.4,2.178,1.554,5.521-.622,9.714-1.555,2.951-4.508,4.28-7.074,5.129C-3.036,19.351.306,9.877,6.912,6.534,4.736,1.71,4.581,0,4.581,0S18.649,2.33,23.468,1.4C29.609.152,39.091,1.633,42.589,9.79c5.83,2.341,8.084,5.989,8.628,10.029C52.072,26.113,48.5,33.039,47.8,35.838Z" transform="translate(36.382 10.879)" fill="url(#linear-gradient)"/>
  <path id="Path-4" data-name="Path" d="M33.967,18.806v2.646H0V18.033a7.089,7.089,0,0,0,.622-2.875V1.633A5.835,5.835,0,0,1,0,.773V0A11.537,11.537,0,0,0,2.8,3.343l10.649,7.383a6.787,6.787,0,0,0,8.628.152l9.949-8.94c.311-.3.7-.621,1.011-.926-.156,1-.077,3.027-.077,14.146A5.9,5.9,0,0,0,33.967,18.806Z" transform="translate(44.849 66.612)" fill="url(#linear-gradient-2)"/>
  <path id="Path-5" data-name="Path" d="M43.668,26.67a30.35,30.35,0,0,1-1.918,5.641,22.146,22.146,0,0,1-9.7,9.583A21.708,21.708,0,0,1,17.612,43.81,22.108,22.108,0,0,1,26.523.5,23.409,23.409,0,0,1,37.689,6.48,22.031,22.031,0,0,1,43.668,26.67Z" transform="translate(39.869 94.347)" fill="url(#linear-gradient-3)"/>
  <path id="Path-6" data-name="Path" d="M15.9,6.991H10.829V1.917a1.918,1.918,0,0,0-3.835,0V6.991H1.918A1.9,1.9,0,0,0,0,8.908a1.841,1.841,0,0,0,1.918,1.927H6.993V15.91a1.918,1.918,0,0,0,3.835,0V10.835H15.9a1.922,1.922,0,0,0,0-3.844Z" transform="translate(53.082 107.59)" fill="#fff"/>
</svg>
