<svg id="Group_68634" data-name="Group 68634" xmlns="http://www.w3.org/2000/svg" width="33" height="33" viewBox="0 0 33 33">
  <path id="Path_66508" data-name="Path 66508" d="M16.5,0A16.5,16.5,0,1,1,0,16.5,16.5,16.5,0,0,1,16.5,0Z" fill="#f2f2f2" opacity="0.7"/>
  <g id="Group_73786" data-name="Group 73786" transform="translate(-51.043 -112.043)">
    <path id="Path_67132" data-name="Path 67132" d="M0,0H19.086V19.086H0Z" transform="translate(58 119)" fill="#f6f6f6"/>
    <path id="Path_67131" data-name="Path 67131" d="M9.989,8.81h3.486a3.608,3.608,0,0,1,1.531.158,1.452,1.452,0,0,1,.635.635,3.608,3.608,0,0,1,.158,1.531v4.939m-5.81,0V5.324a3.608,3.608,0,0,0-.158-1.531A1.452,1.452,0,0,0,9.2,3.158,3.609,3.609,0,0,0,7.665,3H5.05a3.609,3.609,0,0,0-1.531.158,1.452,1.452,0,0,0-.635.635,3.609,3.609,0,0,0-.158,1.531V16.073m13.8,0H2M5.268,5.905H7.447M5.268,8.81H7.447M5.268,11.715H7.447" transform="translate(58.28 119.007)" fill="none" stroke="#1a1615" stroke-linecap="round" stroke-linejoin="round" stroke-width="1.5"/>
  </g>
</svg>
