<svg xmlns="http://www.w3.org/2000/svg" width="32" height="32" viewBox="0 0 32 32">
  <g id="Group_73786" data-name="Group 73786" transform="translate(-58 -119)">
    <path id="Path_67132" data-name="Path 67132" d="M0,0H32V32H0Z" transform="translate(58 119)" fill="#fff"/>
    <path id="Path_67131" data-name="Path 67131" d="M15.394,12.741h5.845a6.05,6.05,0,0,1,2.567.265,2.435,2.435,0,0,1,1.064,1.064,6.05,6.05,0,0,1,.265,2.567v8.28m-9.741,0V6.9a6.05,6.05,0,0,0-.265-2.567,2.435,2.435,0,0,0-1.064-1.064A6.05,6.05,0,0,0,11.5,3H7.114a6.05,6.05,0,0,0-2.567.265A2.435,2.435,0,0,0,3.483,4.33,6.05,6.05,0,0,0,3.218,6.9V24.918m23.136,0H2M7.479,7.871h3.653M7.479,12.741h3.653M7.479,17.612h3.653" transform="translate(59.823 121.041)" fill="none" stroke="#877d78" stroke-linecap="round" stroke-linejoin="round" stroke-width="2"/>
  </g>
</svg>
