<svg xmlns="http://www.w3.org/2000/svg" xmlns:xlink="http://www.w3.org/1999/xlink" width="49" height="49" viewBox="0 0 49 49">
  <defs>
    <filter id="Rectangle_1" x="0" y="0" width="49" height="49" filterUnits="userSpaceOnUse">
      <feOffset dy="3" input="SourceAlpha"/>
      <feGaussianBlur stdDeviation="1.5" result="blur"/>
      <feFlood flood-opacity="0.122"/>
      <feComposite operator="in" in2="blur"/>
      <feComposite in="SourceGraphic"/>
    </filter>
  </defs>
  <g id="cart" transform="translate(4.5 1.5)">
    <g transform="matrix(1, 0, 0, 1, -4.5, -1.5)" filter="url(#Rectangle_1)">
      <rect id="Rectangle_1-2" data-name="Rectangle 1" width="40" height="40" rx="20" transform="translate(4.5 1.5)" fill="#fff"/>
    </g>
    <g id="Group_1" data-name="Group 1" transform="translate(8 8)">
      <rect id="Rectangle_2" data-name="Rectangle 2" width="24" height="24" fill="#fff"/>
      <path id="Path_3" data-name="Path 3" d="M8,8a4,4,0,0,0,8,0m4.367-.6.7,8.4c.15,1.8.226,2.707-.079,3.4a3,3,0,0,1-1.319,1.434C19,21,18.094,21,16.283,21H7.716C5.905,21,5,21,4.332,20.638A3,3,0,0,1,3.012,19.2c-.305-.7-.23-1.6-.08-3.4l.7-8.4a7.276,7.276,0,0,1,.538-2.917A3,3,0,0,1,5.465,3.294,7.275,7.275,0,0,1,8.416,3h7.167a7.275,7.275,0,0,1,2.951.294,3,3,0,0,1,1.294,1.191A7.275,7.275,0,0,1,20.366,7.4Z" transform="translate(0)" fill="none" stroke="#1a1615" stroke-linecap="round" stroke-linejoin="round" stroke-width="2"/>
    </g>
  </g>
</svg>
