<svg xmlns="http://www.w3.org/2000/svg" width="23.456" height="21.729" viewBox="0 0 23.456 21.729">
  <g id="Group_504" data-name="Group 504" transform="translate(-7013.495 -1896.641)">
    <path id="Path_977" data-name="Path 977" d="M7072.958,1904.8a7.417,7.417,0,0,1-.763,3.435,8.165,8.165,0,0,1-3.118,3.433,7.814,7.814,0,0,1-3.043,1.094c-.272.04-.548.059-.822.085-.127.012-.187-.018-.135-.168q.209-.592.4-1.192c.064-.206.249-.149.374-.168a6.681,6.681,0,0,0,5.291-4.341,6.325,6.325,0,0,0,.329-1.468,6.494,6.494,0,0,0-.3-2.811,6.373,6.373,0,0,0-1.746-2.714,6.624,6.624,0,0,0-3.614-1.715,6.448,6.448,0,0,0-4.993,1.349,6.646,6.646,0,0,0-1.905,2.348,6.468,6.468,0,0,0-.63,2.175,7.541,7.541,0,0,0,.474,3.527c.043.115.008.136-.1.136-.42,0-.841,0-1.262,0a.166.166,0,0,1-.178-.145,9.469,9.469,0,0,1-.425-3.445,8.136,8.136,0,0,1,.316-1.62,8.307,8.307,0,0,1,3.992-4.984,7.687,7.687,0,0,1,2.894-.921,7.907,7.907,0,0,1,3.6.421,8.229,8.229,0,0,1,2.494,1.439A8.09,8.09,0,0,1,7072.5,1902a7.06,7.06,0,0,1,.418,1.8C7072.955,1904.134,7072.938,1904.466,7072.958,1904.8Z" transform="translate(-36.014 0)" fill="#116ca5"/>
    <path id="Path_978" data-name="Path 978" d="M7022.331,1956.5c-1.3,0-2.609-.015-3.913.008a.825.825,0,0,1-.81-.763c-.092-.686-.193-1.37-.287-2.056-.078-.574-.147-1.149-.225-1.723-.08-.595-.167-1.189-.246-1.784a8.2,8.2,0,0,1-.092-.843,1,1,0,0,0-.615-.9c-.384-.2-.795-.348-1.173-.556a4.979,4.979,0,0,1-1.192-.646.8.8,0,0,1-.105-1.1.45.45,0,0,1,.518-.073q1.09.511,2.167,1.051a8.194,8.194,0,0,1,1.335.79.939.939,0,0,1,.395.714c.044.513.129,1.023.193,1.534s.123,1.024.186,1.536.121,1,.184,1.494c.065.526.14,1.05.2,1.577.026.239.059.286.294.286q3.283,0,6.564,0c.187,0,.289-.056.334-.244.062-.255.145-.5.219-.756s.035-.285-.224-.285h-6.072a.523.523,0,0,1-.558-.579.5.5,0,0,1,.555-.574c2.16,0,4.319,0,6.479,0a.282.282,0,0,0,.329-.262c.071-.3.164-.6.263-.9.049-.149-.008-.172-.136-.171-.321,0-.642,0-.963,0h-5.687a.653.653,0,0,1-.626-.6.628.628,0,0,1,.581-.682c.057,0,.114,0,.172,0h7.44a1.847,1.847,0,0,1,.337.036.665.665,0,0,1,.518.855,13.866,13.866,0,0,1-.514,1.62c-.377,1.151-.772,2.3-1.161,3.444a.727.727,0,0,1-.75.542Z" transform="translate(0 -41.084)" fill="#116ca5"/>
    <path id="Path_979" data-name="Path 979" d="M7101.595,1919.821c0,.69,0,1.38,0,2.071a.269.269,0,0,0,.19.3c.542.229,1.073.484,1.608.731a.617.617,0,0,1,.343.811.593.593,0,0,1-.83.268c-.671-.3-1.343-.607-2.009-.924a.765.765,0,0,1-.455-.733c0-1.537.006-3.074-.005-4.611a.557.557,0,0,1,.58-.615.6.6,0,0,1,.584.629C7101.583,1918.44,7101.595,1919.13,7101.595,1919.821Z" transform="translate(-72.35 -17.043)" fill="#116ca5"/>
    <path id="Path_980" data-name="Path 980" d="M7040.987,2013.572a1.259,1.259,0,1,1,1.276-1.23A1.239,1.239,0,0,1,7040.987,2013.572Z" transform="translate(-21.834 -95.211)" fill="#116ca5"/>
    <path id="Path_981" data-name="Path 981" d="M7072.667,2012.312a1.257,1.257,0,0,1,2.513.023,1.257,1.257,0,0,1-1.321,1.261A1.231,1.231,0,0,1,7072.667,2012.312Z" transform="translate(-49.24 -95.228)" fill="#116ca5"/>
  </g>
</svg>