<svg xmlns="http://www.w3.org/2000/svg" width="41.238" height="41.238" viewBox="0 0 41.238 41.238">
  <path id="bad" d="M29.117,29.117a10.458,10.458,0,0,0-7.748-3.874,10.458,10.458,0,0,0-7.748,3.874M27.18,15.558H27.2m-11.641,0h.019m25.16,5.811A19.369,19.369,0,1,1,21.369,2,19.369,19.369,0,0,1,40.738,21.369Zm-12.59-5.811a.968.968,0,1,1-.968-.968A.969.969,0,0,1,28.148,15.558Zm-11.621,0a.968.968,0,1,1-.968-.968A.968.968,0,0,1,16.527,15.558Z" transform="translate(-0.75 -0.75)" fill="none" stroke="#877d78" stroke-linecap="round" stroke-linejoin="round" stroke-width="2.5"/>
</svg>
