<svg id="Group_68634" data-name="Group 68634" xmlns="http://www.w3.org/2000/svg" width="33" height="33" viewBox="0 0 33 33">
  <path id="Path_66508" data-name="Path 66508" d="M16.5,0A16.5,16.5,0,1,1,0,16.5,16.5,16.5,0,0,1,16.5,0Z" fill="#f2f2f2" opacity="0.7"/>
  <g id="Group_73786" data-name="Group 73786" transform="translate(-51.102 -112.102)">
    <path id="Path_67132" data-name="Path 67132" d="M0,0H19.2V19.2H0Z" transform="translate(58 119)" fill="#f6f6f6"/>
    <g id="Group_73836" data-name="Group 73836" transform="translate(57.342 118.777)">
      <path id="Path_67152" data-name="Path 67152" d="M11.347,11.695A2.347,2.347,0,1,0,9,9.347,2.347,2.347,0,0,0,11.347,11.695Z" transform="translate(-1.088 -1.088)" fill="none" stroke="#1a1615" stroke-linecap="round" stroke-linejoin="round" stroke-width="1.5"/>
      <path id="Path_67153" data-name="Path 67153" d="M10.259,17.648c3.13-3.13,6.259-5.932,6.259-9.389A6.259,6.259,0,1,0,4,8.259C4,11.716,7.13,14.519,10.259,17.648Z" fill="none" stroke="#1a1615" stroke-linecap="round" stroke-linejoin="round" stroke-width="1.5"/>
    </g>
  </g>
</svg>
