<svg xmlns="http://www.w3.org/2000/svg" width="20.5" height="18.5" viewBox="0 0 20.5 18.5">
  <path id="building" d="M10.55,10.556H5.99a4.746,4.746,0,0,0-2,.206,1.894,1.894,0,0,0-.83.825,4.667,4.667,0,0,0-.207,1.991V20m17.1,0V6.022a4.667,4.667,0,0,0-.207-1.991,1.894,1.894,0,0,0-.83-.825,4.746,4.746,0,0,0-2-.206H13.59a4.746,4.746,0,0,0-2,.206,1.894,1.894,0,0,0-.83.825,4.667,4.667,0,0,0-.207,1.991V20M21,20H2M13.875,6.778h2.85m-2.85,3.778h2.85m-2.85,3.778h2.85" transform="translate(-1.25 -2.25)" fill="none" stroke="#1a1615" stroke-linecap="round" stroke-linejoin="round" stroke-width="1.5"/>
</svg>
