<svg id="call_us_green" xmlns="http://www.w3.org/2000/svg" width="11.375" height="15.75" viewBox="0 0 11.375 15.75">
  <path id="Ellipse_203_Stroke_" data-name="Ellipse 203 (Stroke)" d="M2.625,1.313A1.313,1.313,0,1,0,1.313,2.625,1.312,1.312,0,0,0,2.625,1.313Z" fill="#fff"/>
  <path id="Ellipse_206_Stroke_" data-name="Ellipse 206 (Stroke)" d="M2.625,1.313A1.313,1.313,0,1,0,1.313,2.625,1.312,1.312,0,0,0,2.625,1.313Z" transform="translate(0 4.375)" fill="#fff"/>
  <path id="Ellipse_209_Stroke_" data-name="Ellipse 209 (Stroke)" d="M2.625,1.313A1.313,1.313,0,1,0,1.313,2.625,1.312,1.312,0,0,0,2.625,1.313Z" transform="translate(0 8.75)" fill="#fff"/>
  <path id="Ellipse_204_Stroke_" data-name="Ellipse 204 (Stroke)" d="M2.625,1.313A1.313,1.313,0,1,0,1.313,2.625,1.312,1.312,0,0,0,2.625,1.313Z" transform="translate(4.375)" fill="#fff"/>
  <path id="Ellipse_207_Stroke_" data-name="Ellipse 207 (Stroke)" d="M2.625,1.313A1.313,1.313,0,1,0,1.313,2.625,1.312,1.312,0,0,0,2.625,1.313Z" transform="translate(4.375 4.375)" fill="#fff"/>
  <path id="Ellipse_210_Stroke_" data-name="Ellipse 210 (Stroke)" d="M2.625,1.313A1.313,1.313,0,1,0,1.313,2.625,1.312,1.312,0,0,0,2.625,1.313Z" transform="translate(4.375 8.75)" fill="#fff"/>
  <path id="Ellipse_213_Stroke_" data-name="Ellipse 213 (Stroke)" d="M2.625,1.313A1.313,1.313,0,1,0,1.313,2.625,1.312,1.312,0,0,0,2.625,1.313Z" transform="translate(4.375 13.125)" fill="#fff"/>
  <path id="Ellipse_205_Stroke_" data-name="Ellipse 205 (Stroke)" d="M2.625,1.313A1.313,1.313,0,1,0,1.313,2.625,1.312,1.312,0,0,0,2.625,1.313Z" transform="translate(8.75)" fill="#fff"/>
  <path id="Ellipse_208_Stroke_" data-name="Ellipse 208 (Stroke)" d="M2.625,1.313A1.313,1.313,0,1,0,1.313,2.625,1.312,1.312,0,0,0,2.625,1.313Z" transform="translate(8.75 4.375)" fill="#fff"/>
  <path id="Ellipse_211_Stroke_" data-name="Ellipse 211 (Stroke)" d="M2.625,1.313A1.313,1.313,0,1,0,1.313,2.625,1.312,1.312,0,0,0,2.625,1.313Z" transform="translate(8.75 8.75)" fill="#fff"/>
</svg>
