<svg xmlns="http://www.w3.org/2000/svg" width="18.302" height="20.169" viewBox="0 0 18.302 20.169">
  <path id="calnder_home" d="M19.8,9.467H3M15.135,2V5.734M7.667,2V5.734M7.48,20.669h7.841a6.957,6.957,0,0,0,2.952-.305A2.8,2.8,0,0,0,19.5,19.14a6.957,6.957,0,0,0,.305-2.952V8.347A6.957,6.957,0,0,0,19.5,5.4a2.8,2.8,0,0,0-1.224-1.224,6.957,6.957,0,0,0-2.952-.305H7.48a6.957,6.957,0,0,0-2.951.305A2.8,2.8,0,0,0,3.305,5.4,6.957,6.957,0,0,0,3,8.347v7.841a6.957,6.957,0,0,0,.305,2.952,2.8,2.8,0,0,0,1.224,1.224A6.957,6.957,0,0,0,7.48,20.669Z" transform="translate(-2.25 -1.25)" fill="none" stroke="#1a1615" stroke-linecap="round" stroke-linejoin="round" stroke-width="1.5"/>
</svg>
