<svg xmlns="http://www.w3.org/2000/svg" width="27.01" height="22.5" viewBox="0 0 27.01 22.5">
  <g id="Group_524" data-name="Group 524" transform="translate(70.8 -1120.067)">
    <path id="Path_1012" data-name="Path 1012" d="M-52.8,1122.322h.306q2.745,0,5.489,0a3.087,3.087,0,0,1,3.184,2.7,3.016,3.016,0,0,1,.026.485q0,6.945,0,13.89a3.1,3.1,0,0,1-3.16,3.17c-1.66.006-3.32,0-4.98,0q-7.825,0-15.649,0a3.061,3.061,0,0,1-2.941-1.826,2.881,2.881,0,0,1-.278-1.285q0-7,0-14a3.082,3.082,0,0,1,3.107-3.127c1.859-.01,3.719,0,5.578,0,.385,0,.309,0,.322-.3a1.963,1.963,0,0,1,2.032-1.952q2.446,0,4.892,0a1.968,1.968,0,0,1,2.07,2.005C-52.794,1122.146-52.8,1122.218-52.8,1122.322Zm-9.017,1.687h-5.751a1.42,1.42,0,0,0-1.549,1.556q0,6.879,0,13.758a1.43,1.43,0,0,0,1.556,1.555h20.52a1.43,1.43,0,0,0,1.56-1.551q0-6.89,0-13.78a1.417,1.417,0,0,0-1.544-1.539q-2.745,0-5.49,0h-.272c-.008.152-.013.276-.022.4a1.93,1.93,0,0,1-1.909,1.839q-2.578.026-5.158,0a1.93,1.93,0,0,1-1.882-1.572A6.077,6.077,0,0,1-61.813,1124.008Zm4.518-2.254q-1.206,0-2.412,0c-.313,0-.4.082-.4.39q0,1.017,0,2.033c0,.314.077.389.4.389h4.823c.319,0,.4-.075.4-.388q0-1.017,0-2.033c0-.309-.085-.391-.4-.392Q-56.089,1121.753-57.294,1121.754Z" fill="#116ca5"/>
    <path id="Path_1013" data-name="Path 1013" d="M-29.952,1256.79c0,.112.006.252,0,.392a.849.849,0,0,1-.84.8.847.847,0,0,1-.843-.823,6.736,6.736,0,0,0-.024-.794,1.352,1.352,0,0,0-1.317-1.184q-2.035-.032-4.071,0a1.382,1.382,0,0,0-1.345,1.4c0,.192,0,.383,0,.575a.84.84,0,0,1-.792.827.829.829,0,0,1-.878-.711,3.314,3.314,0,0,1,1.055-3.022,3.048,3.048,0,0,1,2.047-.763q1.947-.008,3.894,0A3.116,3.116,0,0,1-29.952,1256.79Z" transform="translate(-27.344 -118.8)" fill="#116ca5"/>
    <path id="Path_1014" data-name="Path 1014" d="M-13.788,1194.766a2.807,2.807,0,0,1-2.826,2.8,2.812,2.812,0,0,1-2.793-2.808,2.819,2.819,0,0,1,2.817-2.811A2.815,2.815,0,0,1-13.788,1194.766Zm-1.687-.016a1.126,1.126,0,0,0-1.125-1.122,1.127,1.127,0,0,0-1.118,1.129,1.122,1.122,0,0,0,1.125,1.119A1.123,1.123,0,0,0-15.475,1194.75Z" transform="translate(-45.762 -64)" fill="#116ca5"/>
    <path id="Path_1015" data-name="Path 1015" d="M76.961,1238.082c1,0,1.991,0,2.986,0a.9.9,0,0,1,.719.277.789.789,0,0,1,.174.861.808.808,0,0,1-.715.544c-.066.006-.133.007-.2.007q-2.975,0-5.95,0a.9.9,0,0,1-.794-.349.836.836,0,0,1,.507-1.315,1.717,1.717,0,0,1,.33-.026Q75.49,1238.081,76.961,1238.082Z" transform="translate(-128.062 -105.084)" fill="#116ca5"/>
    <path id="Path_1016" data-name="Path 1016" d="M76.98,1197.1h3.009a.846.846,0,1,1,0,1.684q-3.02,0-6.039,0a.847.847,0,0,1-.912-.841.838.838,0,0,1,.907-.843Q75.465,1197.1,76.98,1197.1Z" transform="translate(-128.083 -68.591)" fill="#116ca5"/>
    <path id="Path_1017" data-name="Path 1017" d="M76.947,1279.183c1.017,0,2.035-.005,3.052,0a.836.836,0,0,1,.829,1.113.816.816,0,0,1-.638.551,1.1,1.1,0,0,1-.22.02q-3.03,0-6.06,0a.859.859,0,0,1-.854-.546.835.835,0,0,1,.641-1.123,1.955,1.955,0,0,1,.309-.016Z" transform="translate(-128.043 -141.681)" fill="#116ca5"/>
  </g>
</svg>