<svg xmlns="http://www.w3.org/2000/svg" width="22" height="18" viewBox="0 0 22 18">
  <path id="cash_checkout" d="M6,11v4M18,9v4M17,4a11.215,11.215,0,0,1,4.432.665.708.708,0,0,1,.258.179,1.463,1.463,0,0,1,.25.384A1.062,1.062,0,0,1,22,5.663V16.411a4.05,4.05,0,0,1-.136,1.6.872.872,0,0,1-.532.439,4.983,4.983,0,0,1-1.8-.207A13.449,13.449,0,0,0,17,18c-3,0-6,2-10,2a11.217,11.217,0,0,1-4.432-.665.71.71,0,0,1-.258-.179,1.463,1.463,0,0,1-.25-.384A1.063,1.063,0,0,1,2,18.337V7.589a4.05,4.05,0,0,1,.136-1.6.871.871,0,0,1,.532-.439,4.981,4.981,0,0,1,1.8.207A13.44,13.44,0,0,0,7,6C10,6,13,4,17,4Zm-2.5,8A2.5,2.5,0,1,1,12,9.5,2.5,2.5,0,0,1,14.5,12Z" transform="translate(-1 -3)" fill="none" stroke="#1a1615" stroke-linecap="round" stroke-linejoin="round" stroke-width="2"/>
</svg>
