<svg id="Group_43" data-name="Group 43" xmlns="http://www.w3.org/2000/svg" width="140" height="138.648" viewBox="0 0 140 138.648">
  <path id="Path" d="M70,138.648c38.659,0,70-31.033,70-69.324S108.66,0,70,0,0,31.033,0,69.324,31.34,138.648,70,138.648Z" transform="translate(0 0)" fill="#e9edf8"/>
  <path id="Path-2" data-name="Path" d="M59.422,117.951c32.817,0,59.422-26.411,59.422-58.975S92.239,0,59.422,0,0,26.411,0,58.975,26.6,117.951,59.422,117.951Z" transform="translate(10.579 10.349)" fill="#fff"/>
  <path id="Path-3" data-name="Path" d="M119.068,58.749a14.909,14.909,0,0,1-.225,3.157,59.418,59.418,0,0,0-118.618,0C.225,60.773,0,59.881,0,58.749,0,26.344,26.784,0,59.422,0,92.508,0,119.068,26.344,119.068,58.749Z" transform="translate(10.579 10.349)" fill="#d2dff8" opacity="0.3"/>
  <path id="Path-4" data-name="Path" d="M33.425,28.469l-4.5,4.5L1.013,5.521a3,3,0,0,1,0-4.5,2.993,2.993,0,0,1,4.5,0Z" transform="translate(35.225 37.925)" fill="#aab2c5"/>
  <path id="Path-5" data-name="Path" d="M4.5,25.995,0,21.493,20.708,1.009a3.013,3.013,0,0,1,4.5,0,3,3,0,0,1,0,4.5Z" transform="translate(71.125 45.127)" fill="#aab2c5"/>
  <path id="Path-6" data-name="Path" d="M1.182,1.349a3.847,3.847,0,0,1,5.852,0c1.8,1.811,1.8,4.289,0,5.634s-4.277,1.8-5.852,0A3.948,3.948,0,0,1,1.182,1.349Z" transform="translate(66.118 67.07)" fill="#aab2c5"/>
  <path id="Path-7" data-name="Path" d="M15.591,46.2c-.45,0-.9-.226-.9-.679L.06,1.406C-.165.953.285.287.735.06S1.861.287,2.086.726L16.715,44.851c.225.44-.225,1.119-.674,1.345Z" transform="translate(69.266 70.169)" fill="#aab2c5"/>
  <path id="Path-8" data-name="Path" d="M2.111,2.018a7.363,7.363,0,0,1,10.129,0,6.947,6.947,0,0,1,0,10.136A7.165,7.165,0,0,1,2.111,2.018Z" transform="translate(63.163 64.376)" fill="#fff"/>
  <path id="Shape" d="M7.2,14.267h0a7.248,7.248,0,0,1-5.09-2.113A7.352,7.352,0,0,1,0,6.827a6.652,6.652,0,0,1,2.109-4.81A7.594,7.594,0,0,1,7.26,0a6.994,6.994,0,0,1,4.98,2.017,6.734,6.734,0,0,1,2.193,4.845,7.255,7.255,0,0,1-2.193,5.291A7.087,7.087,0,0,1,7.2,14.267ZM7.239,3.994a3.573,3.573,0,0,0-2.418.967,2.793,2.793,0,0,0-.825,2,3.266,3.266,0,0,0,.94,2.364,3.136,3.136,0,0,0,4.477,0,3.274,3.274,0,0,0,1.025-2.369,2.776,2.776,0,0,0-.909-2l-.059-.054-.058-.053A3.059,3.059,0,0,0,7.239,3.994Z" transform="translate(63.163 64.376)" fill="#aab2c5"/>
  <path id="Path-9" data-name="Path" d="M4.952,0h-3.6A1.455,1.455,0,0,0,0,1.345V11.934a1.455,1.455,0,0,0,1.351,1.345h3.6A1.455,1.455,0,0,0,6.3,11.934V1.119A1.43,1.43,0,0,0,4.952,0Z" transform="translate(67.298 15.756)" fill="#cbd4e2"/>
  <path id="Path-10" data-name="Path" d="M4.952,0h-3.6A1.457,1.457,0,0,0,0,1.359V11.934a1.444,1.444,0,0,0,1.351,1.345h3.6A1.444,1.444,0,0,0,6.3,11.934V1.359C6.077.679,5.627,0,4.952,0Z" transform="translate(67.298 109.16)" fill="#cbd4e2"/>
  <path id="Path-11" data-name="Path" d="M11.93,0H1.351A1.444,1.444,0,0,0,0,1.345v3.6A1.457,1.457,0,0,0,1.351,6.3H11.93A1.457,1.457,0,0,0,13.28,4.941v-3.6A1.444,1.444,0,0,0,11.93,0Z" transform="translate(16.43 65.728)" fill="#cbd4e2"/>
  <path id="Path-12" data-name="Path" d="M11.93,0H1.351A1.444,1.444,0,0,0,0,1.345v3.6A1.457,1.457,0,0,0,1.351,6.3H11.93A1.457,1.457,0,0,0,13.28,4.941v-3.6C13.055.666,12.6,0,11.93,0Z" transform="translate(110.964 65.954)" fill="#cbd4e2"/>
</svg>
