<svg xmlns="http://www.w3.org/2000/svg" width="26" height="24.933" viewBox="0 0 26 24.933">
  <path id="Path_1232" data-name="Path 1232" d="M-328.152-166.451v3.623c0,.227,0,.454,0,.681a1.042,1.042,0,0,1-.639.984,1.03,1.03,0,0,1-1.159-.172q-1.368-1.134-2.732-2.273c-1.077-.9-2.149-1.8-3.235-2.687a.858.858,0,0,0-.5-.181c-2.281-.012-4.561,0-6.842-.009a5.381,5.381,0,0,1-5.356-4.311,5.61,5.61,0,0,1-.111-1.146c-.009-2.854-.015-5.708,0-8.561a5.375,5.375,0,0,1,4.54-5.4,5.515,5.515,0,0,1,.972-.077q7.479-.007,14.957,0a5.388,5.388,0,0,1,5.4,4.3,5.965,5.965,0,0,1,.117,1.234q.015,4.221,0,8.443a5.39,5.39,0,0,1-4.319,5.412C-327.4-166.52-327.761-166.5-328.152-166.451Zm-2.17,1.987v-.384c0-.879-.007-1.758,0-2.637a1.081,1.081,0,0,1,1.172-1.157c.316,0,.632,0,.948,0a3.249,3.249,0,0,0,3.3-3.313q.019-4.281,0-8.562a3.23,3.23,0,0,0-3.31-3.291q-7.508-.007-15.017,0a3.239,3.239,0,0,0-3.341,3.351q-.008,4.222,0,8.443a3.759,3.759,0,0,0,.092.85,3.232,3.232,0,0,0,3.263,2.522q3.628.011,7.257,0a1.563,1.563,0,0,1,1.081.385c.993.844,2,1.672,3,2.506Z" transform="translate(348.736 185.99)" fill="#116ca5"/>
</svg>