<svg id="Group_73811" data-name="Group 73811" xmlns="http://www.w3.org/2000/svg" width="33" height="33" viewBox="0 0 33 33">
  <path id="Path_66508" data-name="Path 66508" d="M16.5,0A16.5,16.5,0,1,1,0,16.5,16.5,16.5,0,0,1,16.5,0Z" fill="#f2f2f2" opacity="0.7"/>
  <g id="Group_73786" data-name="Group 73786" transform="translate(-51.102 -112.102)">
    <path id="Path_67132" data-name="Path 67132" d="M0,0H19.2V19.2H0Z" transform="translate(58 119)" fill="#f6f6f6"/>
    <path id="Path_67139" data-name="Path 67139" d="M16.8,17.4a8.012,8.012,0,0,0-.138-2.129,3.2,3.2,0,0,0-2.133-2.133A8.012,8.012,0,0,0,12.4,13h-4a8.013,8.013,0,0,0-2.129.138,3.2,3.2,0,0,0-2.133,2.133A8.011,8.011,0,0,0,4,17.4M14,6.6A3.6,3.6,0,1,1,10.4,3,3.6,3.6,0,0,1,14,6.6Z" transform="translate(57.201 118.402)" fill="none" stroke="#1a1615" stroke-linecap="round" stroke-linejoin="round" stroke-width="1.5"/>
  </g>
</svg>

