<svg xmlns="http://www.w3.org/2000/svg" width="22" height="16" viewBox="0 0 22 16">
  <path id="credit_checkout" d="M22,10H2m9,4H6M2,8.2v7.6a4.969,4.969,0,0,0,.218,2.108,2,2,0,0,0,.874.874A4.968,4.968,0,0,0,5.2,19H18.8a4.968,4.968,0,0,0,2.108-.218,2,2,0,0,0,.874-.874A4.968,4.968,0,0,0,22,15.8V8.2a4.968,4.968,0,0,0-.218-2.108,2,2,0,0,0-.874-.874A4.969,4.969,0,0,0,18.8,5H5.2a4.969,4.969,0,0,0-2.108.218,2,2,0,0,0-.874.874A4.969,4.969,0,0,0,2,8.2Z" transform="translate(-1 -4)" fill="none" stroke="#1a1615" stroke-linecap="round" stroke-linejoin="round" stroke-width="2"/>
</svg>
