<svg id="delivery_mode_disable" xmlns="http://www.w3.org/2000/svg" width="16" height="15.334" viewBox="0 0 16 15.334">
  <path id="Path_67165" data-name="Path 67165" d="M3.333,8.667A3.333,3.333,0,1,0,6.667,12,3.333,3.333,0,0,0,3.333,8.667Zm0,5.333a2,2,0,1,1,2-2A2,2,0,0,1,3.333,14Zm9.333-5.333A3.333,3.333,0,1,0,16,12a3.333,3.333,0,0,0-3.333-3.333Zm0,5.333a2,2,0,1,1,2-2A2,2,0,0,1,12.667,14ZM6.678,7.023a.653.653,0,0,1,.2-.477c.112-.107,1.771-1.629,1.771-1.629l2.933,2.891.933-.949L9.131,3.525l-.055-.049a4.291,4.291,0,0,0-2.461-.809c-.935,0-3.282.793-3.282,2.667a2,2,0,0,0,2,2c.016,0,.03,0,.046,0a1.99,1.99,0,0,0,.662,1.2l1.292,1.11v3.027H8.667V9.027L6.909,7.518a.659.659,0,0,1-.231-.5ZM4.667,5.333C4.667,4.524,6.115,4,6.615,4a2.8,2.8,0,0,1,.893.151L5.947,5.59c-.255.242-.464.41-.614.41A.667.667,0,0,1,4.667,5.333ZM9.333,1.667A1.667,1.667,0,1,1,11,3.333,1.667,1.667,0,0,1,9.333,1.667Z" fill="#877d78"/>
</svg>
