<svg id="Component_84_15" data-name="Component 84 – 15" xmlns="http://www.w3.org/2000/svg" width="12.32" height="12.32" viewBox="0 0 12.32 12.32">
  <path id="Path_67160" data-name="Path 67160" d="M2.825,6c-.258-.1-.386-.15-.424-.222a.216.216,0,0,1,0-.2c.038-.072.166-.122.424-.223l7.306-2.851c.232-.091.349-.136.423-.111a.216.216,0,0,1,.137.137c.025.074-.021.19-.111.423L7.728,10.263c-.1.257-.151.386-.223.424a.216.216,0,0,1-.2,0c-.072-.038-.122-.166-.222-.424L5.946,7.339a.465.465,0,0,0-.046-.1.216.216,0,0,0-.05-.05.465.465,0,0,0-.1-.046Z" transform="translate(-0.377 -0.391)" fill="none" stroke="#000" stroke-linecap="round" stroke-linejoin="round" stroke-width="1"/>
</svg>
