<svg xmlns="http://www.w3.org/2000/svg" width="27" height="17.689" viewBox="0 0 27 17.689">
  <g id="egypt_flag" transform="translate(0 -4.655)">
    <path id="Path_67122" data-name="Path 67122" d="M27,10.552H0V5.121a.466.466,0,0,1,.465-.466H26.534A.466.466,0,0,1,27,5.121Z" fill="#ff4b55"/>
    <path id="Path_67123" data-name="Path 67123" d="M26.534,22.345H.466A.466.466,0,0,1,0,21.879V16.448H27v5.431A.466.466,0,0,1,26.534,22.345Z" fill="#464655"/>
    <path id="Path_67124" data-name="Path 67124" d="M0,10.552H27v5.9H0Z" fill="#f5f5f5"/>
    <path id="Path_67125" data-name="Path 67125" d="M14.986,12.581a.338.338,0,0,0-.445-.321l-.412.137-.1-.6a.741.741,0,0,0-.733-.621h-.385l-.4.5h.533l-.149.737-.434-.145a.338.338,0,0,0-.445.321v2.5l.6-.6-.282.847h-.317v.5h2.973v-.5H14.67l-.282-.847.6.6v-2.5Zm-1.734,2.751h-.4l.275-.733.125.159Zm.5,0v-.574l.125-.159.275.733Zm-.248-.9a1.821,1.821,0,0,1-.735-1.486,1.171,1.171,0,0,0,.735-.5,1.171,1.171,0,0,0,.735.5,1.821,1.821,0,0,1-.735,1.486Z" fill="#f0c727"/>
  </g>
</svg>
