<svg xmlns="http://www.w3.org/2000/svg" width="16.145" height="28.442" viewBox="0 0 16.145 28.442">
  <g id="Group_72509" data-name="Group 72509" transform="translate(0 0)">
    <path id="Path_17453" data-name="Path 17453" d="M23.856,10.293H16.944L23.352.486H15.279L7.711,15.2h5.953L7.711,28.927Z" transform="translate(-7.711 -0.486)" fill="#ffdd09"></path>
    <path id="Path_17454" data-name="Path 17454" d="M16.718.486h-1.9L7.711,14.706h1.9L16.718.486Z" transform="translate(-7.214 -0.012)" fill="#fff"></path>
    <path id="Path_17455" data-name="Path 17455" d="M20.434,11.486,9.057,25l-1.9,4.5L22.33,11.486Z" transform="translate(-7.138 -1.531)" fill="#fd9808"></path>
    <path id="Path_17456" data-name="Path 17456" d="M7.632,28.442a.355.355,0,0,1-.237-.047.473.473,0,0,1-.19-.569l5.309-12.657H7.632a.566.566,0,0,1-.427-.237.43.43,0,0,1,0-.474L14.315.237A.5.5,0,0,1,14.742,0h7.584a.5.5,0,0,1,.427.237.43.43,0,0,1,0,.474l-5.546,8.77H22.8a.456.456,0,0,1,.427.284.509.509,0,0,1-.047.521L8.011,28.3A.538.538,0,0,1,7.632,28.442ZM8.39,14.221h4.835a.585.585,0,0,1,.379.19.461.461,0,0,1,.047.427L9.291,25.266,21.805,10.429h-5.5a.5.5,0,0,1-.427-.237.43.43,0,0,1,0-.474L21.473.948H15.026Z" transform="translate(-7.134)"></path>
  </g>
</svg>



