<svg xmlns="http://www.w3.org/2000/svg" width="28" height="28" viewBox="0 0 28 28">
  <g id="Bold_2px_heart" data-name="Bold 2px/heart" transform="translate(0.002 0.001)">
    <rect id="Bold_2px_heart_background" data-name="Bold 2px/heart background" width="28" height="28" transform="translate(-0.002 -0.001)" fill="none"/>
    <path id="Combined_Shape" data-name="Combined Shape" d="M11.661,20a3.472,3.472,0,0,1-2.5-1.049L1.948,11.6a6.887,6.887,0,0,1,0-9.6,6.618,6.618,0,0,1,9.48,0l.233.237L11.894,2a6.619,6.619,0,0,1,9.481,0,6.889,6.889,0,0,1,0,9.6l-7.216,7.353A3.472,3.472,0,0,1,11.661,20ZM6.688,2.333a4.28,4.28,0,0,0-3.075,1.3,4.542,4.542,0,0,0,0,6.331l7.215,7.354a1.166,1.166,0,0,0,1.665,0l7.215-7.354a4.542,4.542,0,0,0,0-6.331,4.286,4.286,0,0,0-6.149,0L12.493,4.72a1.166,1.166,0,0,1-1.665,0L9.763,3.633A4.28,4.28,0,0,0,6.688,2.333Z" transform="translate(2.338 4.083)" fill="#1a1615"/>
  </g>
</svg>
