<svg xmlns="http://www.w3.org/2000/svg" width="40.473" height="40.473" viewBox="0 0 40.473 40.473">
  <path id="good" d="M13.392,24.784a10.252,10.252,0,0,0,7.595,3.8,10.252,10.252,0,0,0,7.595-3.8m-1.9-9.493H26.7m-11.411,0h.019m24.664,5.7A18.987,18.987,0,1,1,20.987,2,18.987,18.987,0,0,1,39.973,20.987Zm-12.341-5.7a.949.949,0,1,1-.949-.949A.949.949,0,0,1,27.632,15.291Zm-11.392,0a.949.949,0,1,1-.949-.949A.949.949,0,0,1,16.24,15.291Z" transform="translate(-0.75 -0.75)" fill="none" stroke="#e30015" stroke-linecap="round" stroke-linejoin="round" stroke-width="2.5"/>
</svg>
