<svg xmlns="http://www.w3.org/2000/svg" xmlns:xlink="http://www.w3.org/1999/xlink" width="14.286" height="8.164" viewBox="0 0 14.286 8.164">
  <defs>
    <clipPath id="clip-path">
      <path id="Shape" d="M7.143,5.7,1.742.3A1.02,1.02,0,0,0,.3,1.742L6.422,7.865a1.02,1.02,0,0,0,1.443,0l6.123-6.123A1.02,1.02,0,0,0,12.544.3Z" transform="translate(0)" fill="#877d78"/>
    </clipPath>
    <filter id="_Icon_Color" x="-65.25" y="-49.587" width="144.938" height="143.626" filterUnits="userSpaceOnUse">
      <feOffset dy="18" input="SourceAlpha"/>
      <feGaussianBlur stdDeviation="20" result="blur"/>
      <feFlood flood-color="#6b67d2" flood-opacity="0.349"/>
      <feComposite operator="in" in2="blur"/>
      <feComposite in="SourceGraphic"/>
    </filter>
  </defs>
  <g id="gray_down_arrow" transform="translate(0 0)">
    <g id="Group_150" data-name="Group 150" transform="translate(0 0)">
      <path id="Shape-2" data-name="Shape" d="M7.143,5.7,1.742.3A1.02,1.02,0,0,0,.3,1.742L6.422,7.865a1.02,1.02,0,0,0,1.443,0l6.123-6.123A1.02,1.02,0,0,0,12.544.3Z" transform="translate(0)" fill="#877d78"/>
      <g id="Mask_Group_150" data-name="Mask Group 150" clip-path="url(#clip-path)">
        <g transform="matrix(1, 0, 0, 1, 0, 0)" filter="url(#_Icon_Color)">
          <rect id="_Icon_Color-2" data-name="↳ Icon Color" width="24.938" height="23.626" transform="translate(-5.25 -7.59)" fill="#877d78"/>
        </g>
      </g>
    </g>
  </g>
</svg>
