<svg xmlns="http://www.w3.org/2000/svg" xmlns:xlink="http://www.w3.org/1999/xlink" width="8.164" height="14.286" viewBox="0 0 8.164 14.286">
  <defs>
    <clipPath id="clip-path">
      <path id="Shape" d="M7.143,2.464l-5.4,5.4A1.02,1.02,0,0,1,.3,6.422L6.422.3A1.02,1.02,0,0,1,7.865.3l6.123,6.123a1.02,1.02,0,0,1-1.443,1.443Z" transform="translate(0 0)" fill="#877d78"/>
    </clipPath>
    <filter id="_Icon_Color" x="-67.587" y="-47.25" width="143.626" height="144.938" filterUnits="userSpaceOnUse">
      <feOffset dy="18" input="SourceAlpha"/>
      <feGaussianBlur stdDeviation="20" result="blur"/>
      <feFlood flood-color="#6b67d2" flood-opacity="0.349"/>
      <feComposite operator="in" in2="blur"/>
      <feComposite in="SourceGraphic"/>
    </filter>
  </defs>
  <g id="gray_down_right" transform="translate(8.164) rotate(90)">
    <g id="Group_150" data-name="Group 150" transform="translate(0 0)">
      <path id="Shape-2" data-name="Shape" d="M7.143,2.464l-5.4,5.4A1.02,1.02,0,0,1,.3,6.422L6.422.3A1.02,1.02,0,0,1,7.865.3l6.123,6.123a1.02,1.02,0,0,1-1.443,1.443Z" transform="translate(0 0)" fill="#877d78"/>
      <g id="Mask_Group_150" data-name="Mask Group 150" transform="translate(0 0)" clip-path="url(#clip-path)">
        <g transform="matrix(0, -1, 1, 0, 0, 8.16)" filter="url(#_Icon_Color)">
          <rect id="_Icon_Color-2" data-name="↳ Icon Color" width="24.938" height="23.626" transform="translate(16.04 -5.25) rotate(90)" fill="#877d78"/>
        </g>
      </g>
    </g>
  </g>
</svg>
