<svg id="Bold_2px_show" data-name="Bold 2px/show" xmlns="http://www.w3.org/2000/svg" width="28" height="28" viewBox="0 0 28 28">
  <rect id="Bold_2px_show_background" data-name="Bold 2px/show background" width="28" height="28" fill="#fff"/>
  <g id="Group" transform="translate(2.669 5.833)">
    <path id="Combined_Shape" data-name="Combined Shape" d="M11.331,16.334a11.477,11.477,0,0,1-7.244-2.555,15.965,15.965,0,0,1-3.72-4.29,2.568,2.568,0,0,1,0-2.645,15.97,15.97,0,0,1,3.72-4.289,11.545,11.545,0,0,1,14.488,0A15.988,15.988,0,0,1,22.3,6.844a2.568,2.568,0,0,1,0,2.645,15.982,15.982,0,0,1-3.721,4.29A11.477,11.477,0,0,1,11.331,16.334Zm0-14c-4.818,0-7.684,3.578-8.963,5.711a.241.241,0,0,0-.038.123.235.235,0,0,0,.038.122C3.646,10.422,6.511,14,11.331,14s7.685-3.578,8.964-5.711a.23.23,0,0,0,.037-.122.236.236,0,0,0-.037-.123C19.016,5.911,16.15,2.333,11.331,2.333Z" transform="translate(0)" fill="#1a1615"/>
    <path id="Combined_Shape-2" data-name="Combined Shape" d="M3.629,7.259a3.63,3.63,0,1,1,3.63-3.63A3.634,3.634,0,0,1,3.629,7.259Zm0-4.84a1.21,1.21,0,1,0,1.21,1.21A1.211,1.211,0,0,0,3.629,2.419Z" transform="translate(7.701 4.537)" fill="#1a1615"/>
  </g>
</svg>
