<svg xmlns="http://www.w3.org/2000/svg" width="24.244" height="24.244" viewBox="0 0 24.244 24.244">
  <g id="Group_73917" data-name="Group 73917" transform="translate(-16 -188.877)">
    <g id="Group_73717" data-name="Group 73717" transform="translate(16 188.877)">
      <rect id="Rectangle_9713" data-name="Rectangle 9713" width="24.244" height="24.244" transform="translate(0 0)" fill="#fff"/>
    </g>
    <path id="Path_67299" data-name="Path 67299" d="M9,21V13.6a2.484,2.484,0,0,1,.109-1.054,1,1,0,0,1,.437-.437A2.484,2.484,0,0,1,10.6,12h2.8a2.484,2.484,0,0,1,1.054.109,1,1,0,0,1,.437.437A2.484,2.484,0,0,1,15,13.6V21M2,9.5l9.04-6.78a2.311,2.311,0,0,1,.705-.437,1,1,0,0,1,.509,0,2.311,2.311,0,0,1,.705.437L22,9.5M4,8v9.8a4.969,4.969,0,0,0,.218,2.108,2,2,0,0,0,.874.874A4.968,4.968,0,0,0,7.2,21h9.6a4.968,4.968,0,0,0,2.108-.218,2,2,0,0,0,.874-.874A4.968,4.968,0,0,0,20,17.8V8L13.92,3.44a4.62,4.62,0,0,0-1.411-.874,2,2,0,0,0-1.018,0,4.62,4.62,0,0,0-1.411.874Z" transform="translate(16.501 189.127)" fill="none" stroke="#1a1615" stroke-linecap="round" stroke-linejoin="round" stroke-width="1.5"/>
  </g>
</svg>
