<svg xmlns="http://www.w3.org/2000/svg" width="19.749" height="16.099" viewBox="0 0 19.749 16.099">
  <path id="info_minorder" d="M5.65,10.387v3.65M16.6,8.562v3.65M15.687,4a10.233,10.233,0,0,1,4.044.607.646.646,0,0,1,.236.163,1.335,1.335,0,0,1,.228.35.969.969,0,0,1,.054.4v9.807a3.7,3.7,0,0,1-.124,1.457.8.8,0,0,1-.485.4A4.546,4.546,0,0,1,18,16.993a12.271,12.271,0,0,0-2.31-.219c-2.737,0-5.475,1.825-9.124,1.825a10.235,10.235,0,0,1-4.044-.607.648.648,0,0,1-.236-.163,1.335,1.335,0,0,1-.228-.35.97.97,0,0,1-.054-.4V7.275a3.7,3.7,0,0,1,.124-1.457.8.8,0,0,1,.485-.4,4.545,4.545,0,0,1,1.642.189,12.263,12.263,0,0,0,2.31.219C9.3,5.825,12.037,4,15.687,4Zm-2.281,7.3a2.281,2.281,0,1,1-2.281-2.281A2.281,2.281,0,0,1,13.405,11.3Z" transform="translate(-1.25 -3.25)" fill="none" stroke="#141414" stroke-linecap="round" stroke-linejoin="round" stroke-width="1.5"/>
</svg>
