<svg xmlns="http://www.w3.org/2000/svg" width="19.26" height="19.26" viewBox="0 0 19.26 19.26">
  <path id="info_contactus" d="M20.76,17.8V11.88A8.88,8.88,0,0,0,3,11.88V17.8m2.467,2.96A2.467,2.467,0,0,1,3,18.293V16.32a2.467,2.467,0,0,1,4.933,0v1.973A2.467,2.467,0,0,1,5.467,20.76Zm12.826,0a2.467,2.467,0,0,1-2.467-2.467V16.32a2.467,2.467,0,0,1,4.933,0v1.973A2.467,2.467,0,0,1,18.293,20.76Z" transform="translate(-2.25 -2.25)" fill="none" stroke="#1a1615" stroke-linecap="round" stroke-linejoin="round" stroke-width="1.5"/>
</svg>
