<svg xmlns="http://www.w3.org/2000/svg" width="23.105" height="23.644" viewBox="0 0 23.105 23.644">
  <g id="info_feedback" transform="translate(-2 -2)">
    <path id="Path_67202" data-name="Path 67202" d="M3,8.628c0-1.97,0-2.955.383-3.707A3.518,3.518,0,0,1,4.921,3.383C5.673,3,6.658,3,8.628,3h9.849c1.97,0,2.955,0,3.708.383a3.517,3.517,0,0,1,1.537,1.537c.383.752.383,1.737.383,3.707V14.96c0,1.97,0,2.955-.383,3.708A3.517,3.517,0,0,1,22.185,20.2c-.753.383-1.737.383-3.708.383h-2.95a7.442,7.442,0,0,0-1.447.072,3.514,3.514,0,0,0-.893.313,7.448,7.448,0,0,0-1.175.848l-2.8,2.238c-.488.39-.732.585-.937.586a.586.586,0,0,1-.459-.221c-.128-.16-.128-.473-.128-1.1V20.588a8.817,8.817,0,0,1-2.083-.12A3.518,3.518,0,0,1,3.12,17.981,8.815,8.815,0,0,1,3,15.9Z" fill="none" stroke="#000" stroke-linecap="round" stroke-linejoin="round" stroke-width="2"/>
    <path id="Path_67203" data-name="Path 67203" d="M12.773,7.863a2.894,2.894,0,0,0-4.136-.43,3.077,3.077,0,0,0-.47,4.3,37.16,37.16,0,0,0,3.392,3.328,2.624,2.624,0,0,0,.876.636,1.2,1.2,0,0,0,.676,0,2.624,2.624,0,0,0,.876-.636,37.168,37.168,0,0,0,3.392-3.328,3.055,3.055,0,0,0-.47-4.3A2.9,2.9,0,0,0,12.773,7.863Z" transform="translate(0.776 0.647)" fill="none" stroke="#000" stroke-linecap="round" stroke-linejoin="round" stroke-width="2" fill-rule="evenodd"/>
  </g>
</svg>
