<svg xmlns="http://www.w3.org/2000/svg" xmlns:xlink="http://www.w3.org/1999/xlink" width="25" height="24" viewBox="0 0 25 24">
  <defs>
    <clipPath id="clip-path">
      <rect id="Rectangle_9727" data-name="Rectangle 9727" width="25" height="24" transform="translate(-0.157 -0.001)" fill="#e8e5e3"/>
    </clipPath>
    <radialGradient id="radial-gradient" cx="0.133" cy="1.005" r="1.305" gradientTransform="translate(0)" gradientUnits="objectBoundingBox">
      <stop offset="0.09" stop-color="#fa8f21"/>
      <stop offset="0.78" stop-color="#d82d7e"/>
    </radialGradient>
    <radialGradient id="radial-gradient-2" cx="0.606" cy="1.05" r="1.029" gradientTransform="translate(0)" gradientUnits="objectBoundingBox">
      <stop offset="0.64" stop-color="#8c3aaa" stop-opacity="0"/>
      <stop offset="1" stop-color="#8c3aaa"/>
    </radialGradient>
  </defs>
  <g id="Mask_Group_1653" data-name="Mask Group 1653" transform="translate(0.157 0.001)" clip-path="url(#clip-path)">
    <g id="instagram-2016-6_1_" data-name="instagram-2016-6 (1)" transform="translate(1.766 2.039)">
      <path id="Path_67187" data-name="Path 67187" d="M6.855,10.281a3.427,3.427,0,1,1,3.427,3.427,3.427,3.427,0,0,1-3.427-3.427M5,10.281A5.279,5.279,0,1,0,10.281,5,5.279,5.279,0,0,0,5,10.281m9.534-5.488A1.234,1.234,0,1,0,15.77,3.559h0a1.234,1.234,0,0,0-1.234,1.233M6.128,18.649A5.682,5.682,0,0,1,4.218,18.3a3.2,3.2,0,0,1-1.183-.769,3.172,3.172,0,0,1-.769-1.182,5.677,5.677,0,0,1-.354-1.909c-.05-1.084-.06-1.409-.06-4.155s.011-3.07.06-4.155a5.72,5.72,0,0,1,.354-1.909,3.2,3.2,0,0,1,.769-1.183,3.169,3.169,0,0,1,1.183-.769,5.677,5.677,0,0,1,1.909-.354c1.084-.05,1.409-.06,4.154-.06s3.07.011,4.155.06a5.72,5.72,0,0,1,1.909.354,3.185,3.185,0,0,1,1.183.769A3.185,3.185,0,0,1,18.3,4.217a5.677,5.677,0,0,1,.354,1.909c.05,1.085.06,1.409.06,4.155s-.01,3.07-.06,4.155a5.7,5.7,0,0,1-.354,1.909A3.4,3.4,0,0,1,16.345,18.3a5.677,5.677,0,0,1-1.909.354c-1.084.05-1.409.06-4.155.06s-3.07-.01-4.154-.06M6.042.062a7.539,7.539,0,0,0-2.5.478A5.043,5.043,0,0,0,1.726,1.726,5.023,5.023,0,0,0,.54,3.547a7.541,7.541,0,0,0-.478,2.5C.012,7.139,0,7.489,0,10.281s.012,3.142.062,4.239a7.54,7.54,0,0,0,.478,2.5,5.026,5.026,0,0,0,1.186,1.821,5.055,5.055,0,0,0,1.821,1.186,7.546,7.546,0,0,0,2.5.478c1.1.05,1.447.062,4.239.062s3.143-.012,4.239-.062a7.541,7.541,0,0,0,2.5-.478,5.256,5.256,0,0,0,3.007-3.007,7.52,7.52,0,0,0,.478-2.5c.05-1.1.061-1.447.061-4.239S20.55,7.139,20.5,6.042a7.538,7.538,0,0,0-.478-2.5,5.056,5.056,0,0,0-1.186-1.821A5.031,5.031,0,0,0,17.016.54a7.529,7.529,0,0,0-2.5-.478C13.425.012,13.074,0,10.282,0S7.139.012,6.042.062" transform="translate(0 0)" fill="url(#radial-gradient)"/>
      <path id="Path_67188" data-name="Path 67188" d="M6.855,10.281a3.427,3.427,0,1,1,3.427,3.427,3.427,3.427,0,0,1-3.427-3.427M5,10.281A5.279,5.279,0,1,0,10.281,5,5.279,5.279,0,0,0,5,10.281m9.534-5.488A1.234,1.234,0,1,0,15.77,3.559h0a1.234,1.234,0,0,0-1.234,1.233M6.128,18.649A5.682,5.682,0,0,1,4.218,18.3a3.2,3.2,0,0,1-1.183-.769,3.172,3.172,0,0,1-.769-1.182,5.677,5.677,0,0,1-.354-1.909c-.05-1.084-.06-1.409-.06-4.155s.011-3.07.06-4.155a5.72,5.72,0,0,1,.354-1.909,3.2,3.2,0,0,1,.769-1.183,3.169,3.169,0,0,1,1.183-.769,5.677,5.677,0,0,1,1.909-.354c1.084-.05,1.409-.06,4.154-.06s3.07.011,4.155.06a5.72,5.72,0,0,1,1.909.354,3.185,3.185,0,0,1,1.183.769A3.185,3.185,0,0,1,18.3,4.217a5.677,5.677,0,0,1,.354,1.909c.05,1.085.06,1.409.06,4.155s-.01,3.07-.06,4.155a5.7,5.7,0,0,1-.354,1.909A3.4,3.4,0,0,1,16.345,18.3a5.677,5.677,0,0,1-1.909.354c-1.084.05-1.409.06-4.155.06s-3.07-.01-4.154-.06M6.042.062a7.539,7.539,0,0,0-2.5.478A5.043,5.043,0,0,0,1.726,1.726,5.023,5.023,0,0,0,.54,3.547a7.541,7.541,0,0,0-.478,2.5C.012,7.139,0,7.489,0,10.281s.012,3.142.062,4.239a7.54,7.54,0,0,0,.478,2.5,5.026,5.026,0,0,0,1.186,1.821,5.055,5.055,0,0,0,1.821,1.186,7.546,7.546,0,0,0,2.5.478c1.1.05,1.447.062,4.239.062s3.143-.012,4.239-.062a7.541,7.541,0,0,0,2.5-.478,5.256,5.256,0,0,0,3.007-3.007,7.52,7.52,0,0,0,.478-2.5c.05-1.1.061-1.447.061-4.239S20.55,7.139,20.5,6.042a7.538,7.538,0,0,0-.478-2.5,5.056,5.056,0,0,0-1.186-1.821A5.031,5.031,0,0,0,17.016.54a7.529,7.529,0,0,0-2.5-.478C13.425.012,13.074,0,10.282,0S7.139.012,6.042.062" transform="translate(0 0)" fill="url(#radial-gradient-2)"/>
    </g>
  </g>
</svg>
