<svg xmlns="http://www.w3.org/2000/svg" width="24.125" height="24.126" viewBox="0 0 24.125 24.126">
  <g id="Group_712" data-name="Group 712" transform="translate(-157 -672)">
    <g id="Group_699" data-name="Group 699" transform="translate(-2414.439 345.668)">
      <path id="Path_1189" data-name="Path 1189" d="M2583.515,326.336c.939,0,1.879-.011,2.819,0,.84.013,1.679.039,2.518.085a7.939,7.939,0,0,1,2.746.615,6.057,6.057,0,0,1,3.289,3.335,7.748,7.748,0,0,1,.517,2c.074.571.094,1.146.118,1.721.042,1.008.041,2.017.041,3.026,0,1.381,0,2.762-.008,4.143-.007.755-.035,1.511-.071,2.265a9.013,9.013,0,0,1-.383,2.285,6.254,6.254,0,0,1-1.3,2.345,6.152,6.152,0,0,1-2.556,1.724,8.5,8.5,0,0,1-1.764.415c-.507.066-1.016.091-1.525.108-2.5.082-4.994.051-7.491.036-.775,0-1.549-.039-2.323-.084a8.1,8.1,0,0,1-2.9-.687,6.13,6.13,0,0,1-1.878-1.343,6.312,6.312,0,0,1-1.557-2.867,9.717,9.717,0,0,1-.281-1.908c-.068-1.172-.079-2.346-.082-3.519s0-2.371,0-3.556c0-.591.007-1.181.022-1.772.014-.529.035-1.058.067-1.586a8.675,8.675,0,0,1,.546-2.635,6.1,6.1,0,0,1,2.514-3.023,6.735,6.735,0,0,1,2.22-.855,11.915,11.915,0,0,1,1.883-.211C2580.3,326.315,2581.908,326.332,2583.515,326.336Zm.144,21.953c1.1-.012,2.369-.02,3.634-.04.6-.01,1.2-.03,1.8-.1a5.919,5.919,0,0,0,1.5-.348,3.917,3.917,0,0,0,2.259-2.167,6.067,6.067,0,0,0,.448-2.022q.048-.7.064-1.4.025-1.047.027-2.094,0-1.939,0-3.878c0-.621-.017-1.242-.033-1.863-.014-.537-.031-1.073-.094-1.607a5.978,5.978,0,0,0-.347-1.473,3.911,3.911,0,0,0-1.972-2.167,5.339,5.339,0,0,0-2.026-.517c-.723-.05-1.448-.077-2.173-.094-.809-.018-1.619-.019-2.428-.017-1.538.005-3.076.013-4.614.031a16.383,16.383,0,0,0-1.962.117,5.558,5.558,0,0,0-1.526.41,3.89,3.89,0,0,0-1.952,1.854,5.249,5.249,0,0,0-.519,1.908q-.067.715-.086,1.435c-.022.79-.032,1.58-.035,2.37-.005,1.178,0,2.355,0,3.533,0,.587.005,1.174.018,1.76.015.667.031,1.334.1,2a5.913,5.913,0,0,0,.358,1.564,3.917,3.917,0,0,0,2.223,2.279,6.259,6.259,0,0,0,2.039.429c.512.032,1.026.056,1.54.064C2581.1,348.273,2582.3,348.278,2583.659,348.289Z" transform="translate(0 0)" fill="#116ca5"/>
      <path id="Path_1190" data-name="Path 1190" d="M2657.235,405.856a6.194,6.194,0,1,1-6.177-6.2A6.191,6.191,0,0,1,2657.235,405.856Zm-6.2,4.02a4.021,4.021,0,1,0-4.012-4.039A4.026,4.026,0,0,0,2651.032,409.876Z" transform="translate(-67.537 -67.463)" fill="#116ca5"/>
      <path id="Path_1191" data-name="Path 1191" d="M2786.163,381.382a1.447,1.447,0,1,1,1.454-1.444A1.443,1.443,0,0,1,2786.163,381.382Z" transform="translate(-196.225 -47.986)" fill="#116ca5"/>
    </g>
  </g>
</svg>