<svg xmlns="http://www.w3.org/2000/svg" xmlns:xlink="http://www.w3.org/1999/xlink" width="20" height="20" viewBox="0 0 20 20">
  <defs>
    <clipPath id="clip-path">
      <rect id="Rectangle_9466" data-name="Rectangle 9466" width="20" height="20" transform="translate(1368 38)" fill="#1a1615" stroke="#707070" stroke-width="1"/>
    </clipPath>
  </defs>
  <g id="insta" transform="translate(-1368 -38)" clip-path="url(#clip-path)">
    <g id="instagram-line" transform="translate(1368 38)">
      <path id="Path_67085" data-name="Path 67085" d="M0,0H20V20H0Z" fill="none"/>
      <path id="Path_67086" data-name="Path 67086" d="M10,7.5A2.5,2.5,0,1,0,12.5,10,2.5,2.5,0,0,0,10,7.5Zm0-1.667A4.167,4.167,0,1,1,5.833,10,4.167,4.167,0,0,1,10,5.833Zm5.417-.208a1.042,1.042,0,1,1-1.042-1.042A1.042,1.042,0,0,1,15.417,5.625ZM10,3.333c-2.062,0-2.4.006-3.358.048a4.527,4.527,0,0,0-1.5.277,2.4,2.4,0,0,0-.9.586,2.408,2.408,0,0,0-.587.9,4.521,4.521,0,0,0-.276,1.5c-.043.92-.048,1.242-.048,3.358,0,2.062.006,2.4.048,3.357a4.545,4.545,0,0,0,.276,1.5,2.591,2.591,0,0,0,1.485,1.486,4.537,4.537,0,0,0,1.5.278c.92.043,1.242.048,3.358.048,2.062,0,2.4-.006,3.357-.048a4.554,4.554,0,0,0,1.5-.276,2.434,2.434,0,0,0,.9-.585,2.409,2.409,0,0,0,.587-.9,4.556,4.556,0,0,0,.277-1.5c.043-.92.048-1.242.048-3.358,0-2.062-.006-2.4-.048-3.357a4.536,4.536,0,0,0-.277-1.5,2.426,2.426,0,0,0-.586-.9,2.4,2.4,0,0,0-.9-.587,4.525,4.525,0,0,0-1.5-.276C12.438,3.338,12.116,3.333,10,3.333Zm0-1.667c2.264,0,2.547.008,3.435.05a6.139,6.139,0,0,1,2.023.387,4.063,4.063,0,0,1,1.477.961A4.09,4.09,0,0,1,17.9,4.542a6.156,6.156,0,0,1,.387,2.023c.039.888.05,1.171.05,3.435s-.008,2.547-.05,3.435a6.161,6.161,0,0,1-.387,2.023A4.255,4.255,0,0,1,15.458,17.9a6.156,6.156,0,0,1-2.023.387c-.888.039-1.171.05-3.435.05s-2.547-.008-3.435-.05A6.161,6.161,0,0,1,4.542,17.9,4.255,4.255,0,0,1,2.1,15.458a6.135,6.135,0,0,1-.388-2.023c-.039-.888-.05-1.171-.05-3.435s.008-2.547.05-3.435A6.135,6.135,0,0,1,2.1,4.542a4.067,4.067,0,0,1,.961-1.477A4.081,4.081,0,0,1,4.542,2.1a6.135,6.135,0,0,1,2.023-.387C7.453,1.678,7.736,1.667,10,1.667Z" fill="#1a1615"/>
    </g>
  </g>
</svg>
