<svg xmlns="http://www.w3.org/2000/svg" width="19.15" height="19.15" viewBox="0 0 19.15 19.15">
  <path id="Path_60951" data-name="Path 60951" d="M17.885,10.825a7.06,7.06,0,0,1-7.06,7.06m7.06-7.06a7.06,7.06,0,0,0-7.06-7.06m7.06,7.06H19.65m-8.825,7.06a7.06,7.06,0,0,1-7.06-7.06m7.06,7.06V19.65m-7.06-8.825a7.06,7.06,0,0,1,7.06-7.06m-7.06,7.06H2m8.825-7.06V2m2.648,8.825a2.648,2.648,0,1,1-2.648-2.648A2.648,2.648,0,0,1,13.473,10.825Z" transform="translate(-1.25 -1.25)" fill="none" stroke="#877d78" stroke-linecap="round" stroke-linejoin="round" stroke-width="1.5"/>
</svg>
