<svg xmlns="http://www.w3.org/2000/svg" width="25.239" height="24.64" viewBox="0 0 25.239 24.64">
  <g id="Group_714" data-name="Group 714" transform="translate(-342.484 -1168.744)">
    <path id="Path_1210" data-name="Path 1210" d="M502.441,1173.9c.818,0,1.61-.006,2.4,0a7,7,0,0,1,1.287.064,2.4,2.4,0,0,1,1.9,2.8c-.3,1.826-.58,3.655-.872,5.482a2.513,2.513,0,0,1-2.54,2.31c-1.1.053-2.195.021-3.292.022-1.176,0-2.352-.016-3.528,0a2.772,2.772,0,0,1-1.874-.551.373.373,0,0,0-.257-.017,4.853,4.853,0,0,1-.681.137c-.7.019-1.392.009-2.088.006a1.2,1.2,0,0,1-1.292-1.308q0-3.423,0-6.845a1.231,1.231,0,0,1,1.411-1.4c.667,0,1.334-.025,2,.013a3.5,3.5,0,0,1,.819.253c.086.028.189.1.258.072a3.343,3.343,0,0,0,2.025-1.55,3.073,3.073,0,0,0,.3-1.2c.044-.85.012-1.7.012-2.555a.674.674,0,0,1,.618-.787,2.847,2.847,0,0,1,2.009.157,2.516,2.516,0,0,1,1.352,2.344c.033.772.012,1.547.016,2.321C502.422,1173.733,502.432,1173.791,502.441,1173.9Zm-2.685-3.768c0,.089-.014.185-.014.281,0,.607-.009,1.214,0,1.821a3.624,3.624,0,0,1-1.186,2.806,5.355,5.355,0,0,1-1.9,1.151.408.408,0,0,0-.316.464c.011,1.821,0,3.642,0,5.464a1.2,1.2,0,0,0,1.295,1.3q2.352,0,4.7,0c.774,0,1.55.015,2.321-.034a1.261,1.261,0,0,0,1.264-1.2q.4-2.761.813-5.52a1.181,1.181,0,0,0-1.286-1.5c-1.156,0-2.313,0-3.469,0-.62,0-.822-.2-.824-.831,0-.871.006-1.743-.005-2.614a3.777,3.777,0,0,0-.091-.814A1.027,1.027,0,0,0,499.757,1170.131Zm-6.811,5.765v7.017c.612,0,1.2-.013,1.785.006.257.008.3-.086.3-.32-.01-1.184,0-2.369,0-3.553q0-1.439,0-2.878c0-.119.041-.273-.165-.272Z" transform="translate(-140.341)" fill="#116ca5"/>
    <path id="Path_1211" data-name="Path 1211" d="M347.484,1227.473c-.562,0-1.08.008-1.6,0a3.408,3.408,0,0,1-3.362-2.918,4.336,4.336,0,0,1-.039-.673q0-5.023,0-10.046a3.41,3.41,0,0,1,3.6-3.6q4.968,0,9.937,0c.088,0,.176,0,.265,0,.433.018.7.263.7.631a.647.647,0,0,1-.712.621q-1.132,0-2.264,0-3.984,0-7.967,0a2.165,2.165,0,0,0-2.268,2.251c-.011,1.89,0,3.78,0,5.669q0,2.218,0,4.436a2.191,2.191,0,0,0,2.361,2.367c.637,0,1.274-.007,1.911,0,.5.007.73.245.732.75,0,.989,0,1.978,0,2.967v.338a2.774,2.774,0,0,0,.224-.167q1.88-1.8,3.756-3.6a.986.986,0,0,1,.735-.3c3.087.006,6.174,0,9.26.007A2.26,2.26,0,0,0,365,1224.84a.64.64,0,0,1,.833-.342.626.626,0,0,1,.29.825,3.426,3.426,0,0,1-3.221,2.15c-2.891.005-5.782.01-8.672-.012a1.492,1.492,0,0,0-1.159.464c-1.46,1.435-2.95,2.838-4.424,4.259a.666.666,0,0,1-.769.2.656.656,0,0,1-.391-.691c0-1.292,0-2.585,0-3.877C347.484,1227.714,347.484,1227.618,347.484,1227.473Z" transform="translate(0 -39.049)" fill="#116ca5"/>
  </g>
</svg>