<svg xmlns="http://www.w3.org/2000/svg" width="11.882" height="9.705" viewBox="0 0 11.882 9.705">
  <path id="money" d="M4.176,7.809V9.985M10.705,6.72V8.9M10.161,4a6.1,6.1,0,0,1,2.411.362.385.385,0,0,1,.141.1.8.8,0,0,1,.136.209.578.578,0,0,1,.032.236v5.848a2.2,2.2,0,0,1-.074.869.474.474,0,0,1-.289.239,2.711,2.711,0,0,1-.979-.113,7.317,7.317,0,0,0-1.378-.131c-1.632,0-3.265,1.088-5.441,1.088a6.1,6.1,0,0,1-2.411-.362.386.386,0,0,1-.141-.1.8.8,0,0,1-.136-.209A.578.578,0,0,1,2,11.8V5.953a2.2,2.2,0,0,1,.074-.869.474.474,0,0,1,.289-.239,2.71,2.71,0,0,1,.979.113,7.313,7.313,0,0,0,1.378.131C6.353,5.088,7.985,4,10.161,4ZM8.8,8.353a1.36,1.36,0,1,1-1.36-1.36A1.36,1.36,0,0,1,8.8,8.353Z" transform="translate(-1.5 -3.5)" fill="none" stroke="#1a1615" stroke-linecap="round" stroke-linejoin="round" stroke-width="1"/>
</svg>
