<svg xmlns="http://www.w3.org/2000/svg" width="40.031" height="40.031" viewBox="0 0 40.031 40.031">
  <g id="more_user" transform="translate(-4.004 -4.003)">
    <path id="Vector" d="M40.031,20.015A20.015,20.015,0,1,0,6.465,34.707c0,.02,0,.02-.02.04.2.2.44.36.64.54a4.194,4.194,0,0,0,.34.28c.36.3.761.58,1.141.861.14.1.26.18.4.28a11.915,11.915,0,0,0,1.2.721c.14.08.3.18.44.26a12.2,12.2,0,0,0,1.261.6,5.118,5.118,0,0,0,.48.22q.661.27,1.321.48a4.5,4.5,0,0,0,.48.16c.48.14.961.26,1.441.38a2.84,2.84,0,0,0,.44.1,15.839,15.839,0,0,0,1.7.26,1,1,0,0,1,.24.04c.681.06,1.361.1,2.042.1s1.361-.04,2.022-.1a1,1,0,0,0,.24-.04,15.839,15.839,0,0,0,1.7-.26c.14-.02.28-.08.44-.1.48-.12.981-.22,1.441-.38a4.5,4.5,0,0,1,.48-.16c.44-.16.9-.3,1.321-.48a5.118,5.118,0,0,0,.48-.22q.63-.27,1.261-.6c.16-.08.3-.18.44-.26.4-.24.8-.46,1.2-.721a4.857,4.857,0,0,0,.4-.28c.4-.28.781-.56,1.141-.861a4.193,4.193,0,0,1,.34-.28c.22-.18.44-.36.64-.54,0-.02,0-.02-.02-.04A19.907,19.907,0,0,0,40.031,20.015ZM29.9,29.963c-5.424-3.643-14.311-3.643-19.775,0a9.665,9.665,0,0,0-2.2,2,17.013,17.013,0,1,1,24.179,0A9.262,9.262,0,0,0,29.9,29.963Z" transform="translate(4.004 4.003)" fill="#b2b2b2"/>
    <path id="Vector-2" data-name="Vector" d="M7.506,0a7.5,7.5,0,0,0-.1,14.992h.36A7.5,7.5,0,0,0,7.506,0Z" transform="translate(16.514 13.871)" fill="#b2b2b2"/>
  </g>
</svg>
