<svg xmlns="http://www.w3.org/2000/svg" fill="none" stroke-linecap="round" stroke-linejoin="round" stroke-width="2" width="20.313" height="20" viewBox="0 0 20.313 20">
  <path id="cart" d="M8,8a4,4,0,0,0,8,0m4.367-.6.7,8.4c.15,1.8.226,2.707-.079,3.4a3,3,0,0,1-1.319,1.434C19,21,18.094,21,16.283,21H7.716C5.905,21,5,21,4.332,20.638A3,3,0,0,1,3.012,19.2c-.305-.7-.23-1.6-.08-3.4l.7-8.4a7.276,7.276,0,0,1,.538-2.917A3,3,0,0,1,5.465,3.294,7.275,7.275,0,0,1,8.416,3h7.167a7.275,7.275,0,0,1,2.951.294,3,3,0,0,1,1.294,1.191A7.275,7.275,0,0,1,20.366,7.4Z" transform="translate(-1.843 -2)" />
</svg>