<svg xmlns="http://www.w3.org/2000/svg" width="16.413" height="19.695" viewBox="0 0 16.413 19.695">
  <path id="more_menu" d="M8.565,0h1.641V7.386A2.462,2.462,0,0,1,7.744,9.848H6.924V19.7H5.283V9.848H4.462A2.462,2.462,0,0,1,2,7.386V0H3.641V7.386a.821.821,0,0,0,.821.821h.821V0H6.924V8.206h.821a.821.821,0,0,0,.821-.821Zm9.848,7.6c0,3.838-3.182,7.542-4.1,8.535V19.7H12.668V1.641A1.641,1.641,0,0,1,15.63.666C16.9,2.369,18.413,4.956,18.413,7.6Zm-4.1,5.958c3.2-4.126,3.217-7.777,0-11.916Z" transform="translate(-2 0)"/>
</svg>
