<svg xmlns="http://www.w3.org/2000/svg" width="32" height="32" viewBox="0 0 32 32">
  <g id="Group_73787" data-name="Group 73787" transform="translate(-58 -119)">
    <path id="Path_67132" data-name="Path 67132" d="M0,0H32V32H0Z" transform="translate(58 119)" fill="none"/>
    <path id="Path_67133" data-name="Path 67133" d="M19.079,7.88a9.173,9.173,0,0,0-.125-2.167,3.66,3.66,0,0,0-2.588-2.588A9.172,9.172,0,0,0,14.2,3a9.172,9.172,0,0,0-2.167.125A3.66,3.66,0,0,0,9.444,5.713,9.172,9.172,0,0,0,9.32,7.88M5.9,24.959H22.5a6.061,6.061,0,0,0,2.572-.266,2.439,2.439,0,0,0,1.066-1.066,6.061,6.061,0,0,0,.266-2.572V11.784a6.061,6.061,0,0,0-.266-2.572,2.44,2.44,0,0,0-1.066-1.066A6.062,6.062,0,0,0,22.5,7.88H5.9a6.061,6.061,0,0,0-2.572.266A2.44,2.44,0,0,0,2.266,9.212,6.061,6.061,0,0,0,2,11.784v9.272a6.062,6.062,0,0,0,.266,2.572,2.44,2.44,0,0,0,1.066,1.066A6.061,6.061,0,0,0,5.9,24.959Z" transform="translate(59.801 121.021)" fill="none" stroke="#e30015" stroke-linecap="round" stroke-linejoin="round" stroke-width="2"/>
  </g>
</svg>
