<svg id="Group_68634" data-name="Group 68634" xmlns="http://www.w3.org/2000/svg" width="33" height="33" viewBox="0 0 33 33">
  <path id="Path_66508" data-name="Path 66508" d="M16.5,0A16.5,16.5,0,1,1,0,16.5,16.5,16.5,0,0,1,16.5,0Z" fill="#f2f2f2" opacity="0.7"/>
  <g id="Group_73786" data-name="Group 73786" transform="translate(-59.145 -107.145)">
    <g id="Group_73787" data-name="Group 73787" transform="translate(66.102 114.102)">
      <path id="Path_67132" data-name="Path 67132" d="M0,0H19.086V19.086H0Z" fill="#f6f6f6"/>
      <path id="Path_67133" data-name="Path 67133" d="M12.187,5.91a5.471,5.471,0,0,0-.074-1.293,2.183,2.183,0,0,0-1.543-1.544A5.47,5.47,0,0,0,9.276,3a5.471,5.471,0,0,0-1.293.074A2.183,2.183,0,0,0,6.44,4.618,5.47,5.47,0,0,0,6.366,5.91M4.328,16.1h9.9a3.615,3.615,0,0,0,1.534-.159,1.455,1.455,0,0,0,.636-.636,3.615,3.615,0,0,0,.159-1.534V8.239a3.615,3.615,0,0,0-.159-1.534,1.455,1.455,0,0,0-.636-.636,3.615,3.615,0,0,0-1.534-.159h-9.9a3.615,3.615,0,0,0-1.534.159,1.455,1.455,0,0,0-.636.636A3.615,3.615,0,0,0,2,8.239v5.53A3.615,3.615,0,0,0,2.159,15.3a1.455,1.455,0,0,0,.636.636A3.615,3.615,0,0,0,4.328,16.1Z" transform="translate(0.267 -0.006)" fill="none" stroke="#1a1615" stroke-linecap="round" stroke-linejoin="round" stroke-width="1.5"/>
    </g>
  </g>
</svg>

