<svg xmlns="http://www.w3.org/2000/svg" xmlns:xlink="http://www.w3.org/1999/xlink" width="31.039" height="31.039" viewBox="0 0 31.039 31.039">
  <defs>
    <clipPath id="clip-path">
      <rect id="Rectangle_9701" data-name="Rectangle 9701" width="15.866" height="15.866" transform="translate(0 0)" fill="#1a1615" stroke="#707070" stroke-width="1"/>
    </clipPath>
  </defs>
  <g id="Group_74056" data-name="Group 74056" transform="translate(6.328 56.02)">
    <path id="Path_66234" data-name="Path 66234" d="M350.52,45.039A15.52,15.52,0,1,0,335,29.52,15.52,15.52,0,0,0,350.52,45.039Z" transform="translate(-341.328 -70.02)" fill="#f5f5f5"/>
    <g id="Mask_Group_1650" data-name="Mask Group 1650" transform="translate(1.12 -48.794)" clip-path="url(#clip-path)">
      <g id="svgexport-22" transform="translate(0 0.33)">
        <path id="Path_67165" data-name="Path 67165" d="M3.305,8.594A3.305,3.305,0,1,0,6.611,11.9,3.305,3.305,0,0,0,3.305,8.594Zm0,5.289A1.983,1.983,0,1,1,5.289,11.9,1.983,1.983,0,0,1,3.305,13.883Zm9.255-5.289A3.305,3.305,0,1,0,15.866,11.9a3.305,3.305,0,0,0-3.305-3.305Zm0,5.289A1.983,1.983,0,1,1,14.544,11.9,1.983,1.983,0,0,1,12.561,13.883ZM6.622,6.964a.648.648,0,0,1,.2-.473c.111-.106,1.756-1.615,1.756-1.615l2.909,2.867.926-.941L9.055,3.5,9,3.447a4.255,4.255,0,0,0-2.44-.8c-.927,0-3.255.787-3.255,2.644A1.983,1.983,0,0,0,5.289,7.272c.016,0,.03,0,.046,0a1.973,1.973,0,0,0,.656,1.19l1.281,1.1v3H8.594V8.952l-1.743-1.5a.653.653,0,0,1-.229-.491ZM4.628,5.289c0-.8,1.436-1.322,1.932-1.322a2.773,2.773,0,0,1,.885.15L5.9,5.543c-.253.24-.46.407-.609.407A.661.661,0,0,1,4.628,5.289ZM9.255,1.653a1.653,1.653,0,1,1,1.653,1.653A1.653,1.653,0,0,1,9.255,1.653Z" fill="#1a1615"/>
      </g>
    </g>
  </g>
</svg>

