<svg xmlns="http://www.w3.org/2000/svg" xmlns:xlink="http://www.w3.org/1999/xlink" width="244.229" height="195.403" viewBox="0 0 244.229 195.403">
  <defs>
    <linearGradient id="linear-gradient" x1="0.5" y1="-0.023" x2="0.5" y2="1.011" gradientUnits="objectBoundingBox">
      <stop offset="0" stop-color="#fdfeff"/>
      <stop offset="0.996" stop-color="#ecf0f5"/>
    </linearGradient>
    <filter id="Path" x="0" y="0" width="244.229" height="195.403" filterUnits="userSpaceOnUse">
      <feOffset dy="11" input="SourceAlpha"/>
      <feGaussianBlur stdDeviation="11" result="blur"/>
      <feFlood flood-color="#657a93" flood-opacity="0.271"/>
      <feComposite operator="in" in2="blur"/>
      <feComposite in="SourceGraphic"/>
    </filter>
    <linearGradient id="linear-gradient-2" x1="0.5" x2="0.5" y2="1" gradientUnits="objectBoundingBox">
      <stop offset="0" stop-color="#abb5c7"/>
      <stop offset="1" stop-color="#7b828f"/>
    </linearGradient>
  </defs>
  <g id="Group_29" data-name="Group 29" transform="translate(6.255 3.297)">
    <path id="Path-2" data-name="Path" d="M6.727,13.46A6.73,6.73,0,1,0,0,6.73,6.734,6.734,0,0,0,6.727,13.46Z" transform="translate(202.998 43.483)" fill="#eaeef9"/>
    <path id="Path-3" data-name="Path" d="M4.595,9.2A4.6,4.6,0,1,0,0,4.59,4.6,4.6,0,0,0,4.595,9.2Z" transform="translate(214.973 21.496)" fill="#eaeef9"/>
    <path id="Path-4" data-name="Path" d="M4.595,9.2A4.6,4.6,0,1,0,0,4.59,4.6,4.6,0,0,0,4.595,9.2Z" transform="translate(31.99 19.52)" fill="#f1f3f9"/>
    <path id="Path-5" data-name="Path" d="M8.532,17.053A8.527,8.527,0,1,0,0,8.527,8.531,8.531,0,0,0,8.532,17.053Z" transform="translate(0 100.246)" fill="#eaeef9"/>
    <path id="Path-6" data-name="Path" d="M83.176,166.679A83.34,83.34,0,1,0,0,83.34,83.214,83.214,0,0,0,83.176,166.679Z" transform="translate(32.811)" fill="rgba(234,238,249,0.5)"/>
    <g transform="matrix(1, 0, 0, 1, -6.25, -3.3)" filter="url(#Path)">
      <path id="Path-7" data-name="Path" d="M178.229,8.853V120.5a8.9,8.9,0,0,1-8.849,8.9H8.9A8.9,8.9,0,0,1,0,120.5V8.853A8.864,8.864,0,0,1,8.9,0H169.381A8.853,8.853,0,0,1,178.229,8.853Z" transform="translate(33 22)" fill="url(#linear-gradient)"/>
    </g>
    <path id="Path-8" data-name="Path" d="M178.229,8.853V18.1H0V8.853A8.864,8.864,0,0,1,8.9,0H169.381A8.853,8.853,0,0,1,178.229,8.853Z" transform="translate(27.022 18.703)" fill="#d5ddea"/>
    <path id="Path-9" data-name="Path" d="M2.444,4.9A2.45,2.45,0,1,0,0,2.45,2.446,2.446,0,0,0,2.444,4.9Z" transform="translate(34.208 25.253)" fill="#989fb0"/>
    <path id="Path-10" data-name="Path" d="M2.444,4.9A2.45,2.45,0,1,0,0,2.45,2.446,2.446,0,0,0,2.444,4.9Z" transform="translate(41.541 25.253)" fill="#989fb0"/>
    <path id="Path-11" data-name="Path" d="M2.444,4.9A2.45,2.45,0,1,0,0,2.45,2.446,2.446,0,0,0,2.444,4.9Z" transform="translate(48.824 25.253)" fill="#989fb0"/>
    <path id="Path-12" data-name="Path" d="M48.2,0H0V47.665H48.2Z" transform="translate(42.714 51.16)" fill="#d5ddea"/>
    <path id="Path-13" data-name="Path" d="M0,.5H33.259" transform="translate(156.936 50.432)" fill="none" stroke="#d6dce8" stroke-linecap="round" stroke-linejoin="round" stroke-miterlimit="10" stroke-width="4"/>
    <path id="Path-14" data-name="Path" d="M0,.5H37.416" transform="translate(104.97 50.432)" fill="none" stroke="#d6dce8" stroke-linecap="round" stroke-linejoin="round" stroke-miterlimit="10" stroke-width="4"/>
    <path id="Path-15" data-name="Path" d="M0,.5H85.225" transform="translate(104.97 66.015)" fill="none" stroke="#d6dce8" stroke-linecap="round" stroke-linejoin="round" stroke-miterlimit="10" stroke-width="4"/>
    <path id="Path-16" data-name="Path" d="M0,.5H50.927" transform="translate(139.268 81.598)" fill="none" stroke="#d6dce8" stroke-linecap="round" stroke-linejoin="round" stroke-miterlimit="10" stroke-width="4"/>
    <path id="Path-17" data-name="Path" d="M0,.5H21.826" transform="translate(104.97 81.598)" fill="none" stroke="#d6dce8" stroke-linecap="round" stroke-linejoin="round" stroke-miterlimit="10" stroke-width="4"/>
    <path id="Path-18" data-name="Path" d="M0,.5H46.769" transform="translate(104.97 97.198)" fill="none" stroke="#d6dce8" stroke-linecap="round" stroke-linejoin="round" stroke-miterlimit="10" stroke-width="4"/>
    <path id="Path-19" data-name="Path" d="M0,.5H47.808" transform="translate(142.385 112.781)" fill="none" stroke="#d6dce8" stroke-linecap="round" stroke-linejoin="round" stroke-miterlimit="10" stroke-width="4"/>
    <path id="Path-20" data-name="Path" d="M0,.5H85.223" transform="translate(42.612 112.781)" fill="none" stroke="#d6dce8" stroke-linecap="round" stroke-linejoin="round" stroke-miterlimit="10" stroke-width="4"/>
    <path id="Path-21" data-name="Path" d="M0,.5H62.359" transform="translate(90.421 128.381)" fill="none" stroke="#d6dce8" stroke-linecap="round" stroke-linejoin="round" stroke-miterlimit="10" stroke-width="4"/>
    <path id="Path-22" data-name="Path" d="M0,.5H33.257" transform="translate(42.612 128.381)" fill="none" stroke="#d6dce8" stroke-linecap="round" stroke-linejoin="round" stroke-miterlimit="10" stroke-width="4"/>
    <path id="Path-23" data-name="Path" d="M3.5,7.008A3.5,3.5,0,1,0,0,3.512,3.5,3.5,0,0,0,3.5,7.008Z" transform="translate(189.871 157.72)" fill="#aab2c5"/>
    <g id="Group_74080" data-name="Group 74080" transform="translate(-5.188)">
      <path id="Shape" d="M7,80.246a6.991,6.991,0,0,1-7-7V24.457a24.41,24.41,0,1,1,48.82,0V73.385a6.707,6.707,0,0,1-6.7,6.861Z" transform="translate(96.818 62.011)" fill="url(#linear-gradient-2)"/>
      <path id="Path-24" data-name="Path" d="M71.444,58.023H7.89A7.949,7.949,0,0,1,0,50.108V7.9A7.945,7.945,0,0,1,7.89,0H71.444a7.945,7.945,0,0,1,7.888,7.9V50.108A7.948,7.948,0,0,1,71.444,58.023Z" transform="translate(81.934 97.511)" fill="#c2c8d6"/>
      <path id="Path-25" data-name="Path" d="M16.075,8.043a8.109,8.109,0,0,1-4.317,7.165v8.649a3.721,3.721,0,1,1-7.443,0V15.208A8.107,8.107,0,0,1,0,8.043a8.037,8.037,0,1,1,16.075,0Z" transform="translate(113.489 111.984)" fill="#989fb0"/>
    </g>
  </g>
</svg>
