<svg xmlns="http://www.w3.org/2000/svg" width="24" height="24" viewBox="0 0 24 24">
  <g id="Group_73917" data-name="Group 73917" transform="translate(-16 -189)">
    <g id="Group_73717" data-name="Group 73717" transform="translate(16 189)">
      <rect id="Rectangle_9713" data-name="Rectangle 9713" width="24" height="24" fill="#fff"/>
    </g>
    <path id="Path_67180" data-name="Path 67180" d="M9,10.5l2,2L15.5,8M20,21V7.8a7.451,7.451,0,0,0-.327-3.161A3,3,0,0,0,18.36,3.327,7.452,7.452,0,0,0,15.2,3H8.8a7.452,7.452,0,0,0-3.161.327A3,3,0,0,0,4.327,4.638,7.452,7.452,0,0,0,4,7.8V21l2.75-2,2.5,2L12,19l2.75,2,2.5-2Z" transform="translate(15.968 188.968)" fill="none" stroke="#000" stroke-linecap="round" stroke-linejoin="round" stroke-width="1.5"/>
  </g>
</svg>
