<svg xmlns="http://www.w3.org/2000/svg" width="25.239" height="15.759" viewBox="0 0 25.239 15.759">
  <path id="Path_982" data-name="Path 982" d="M6538.374,1939.178c-.036.093-.076.184-.106.278a2.106,2.106,0,0,1-1.939,1.509c-1.384.036-2.771.018-4.156.022h-.34c-.113.448-.187.88-.332,1.288a2.3,2.3,0,0,1-1.988,1.714,5.33,5.33,0,0,1-1.079-.113,2.047,2.047,0,0,1-3.352-.267,2.356,2.356,0,0,1-1.612.478,1.408,1.408,0,0,1-1.343-.94,10.621,10.621,0,0,1-4.01.606c-1.429.086-2.857.169-4.286.258-.259.016-.517-.011-.609-.273a.674.674,0,0,1,.05-.534.691.691,0,0,1,.479-.215c2.078-.125,4.157-.234,6.236-.346a4.29,4.29,0,0,0,2.963-1.293q.73-.749,1.487-1.471a1.284,1.284,0,0,1,.423-.252,13.234,13.234,0,0,0,2.842-1.395,2.3,2.3,0,0,0,1.031-1.337,1.573,1.573,0,0,0,.023-.659.849.849,0,0,0-1.133-.719,9.912,9.912,0,0,0-1.51.553c-1.723.782-3.436,1.587-5.153,2.38a.509.509,0,0,1-.736-.209.483.483,0,0,1,.328-.7c.562-.161.692-.487.68-1.051-.038-1.775,0-3.551-.007-5.327,0-.067-.079-.19-.126-.192a1.858,1.858,0,0,0-.669.031,1.582,1.582,0,0,0-.517.368,50.407,50.407,0,0,1-4.517,3.449c-.479.352-.97.689-1.456,1.031a.5.5,0,0,1-.74-.056.676.676,0,0,1,.178-.781c1.644-1.2,3.29-2.4,4.924-3.609.395-.292.739-.651,1.116-.968a2.025,2.025,0,0,1,1.979-.431.3.3,0,0,0,.264-.091,2.444,2.444,0,0,1,2.127-1.054c4,.009,8,0,12,0a2.394,2.394,0,0,1,2.56,1.9c0,.016.022.029.034.043Zm-16.11-5.74v3.308c1.126-.528,2.208-1.06,3.312-1.544a10.953,10.953,0,0,1,1.905-.673,1.834,1.834,0,0,1,2.239,1.391,2.535,2.535,0,0,1-.517,2.3,5.207,5.207,0,0,1-1.842,1.414l-.549.285.015.046h9.2a1.2,1.2,0,0,0,1.337-1.347q0-2.455,0-4.91v-.269Zm15.086-2.07a1.461,1.461,0,0,0-1.432-1.483c-4.083.023-8.166.01-12.249.011a2.719,2.719,0,0,0-.279.011,1.379,1.379,0,0,0-1.11,1.461Zm-9.35,9.619h-1.306c-.549,0-.549,0-.613.534,0,.037-.013.073-.019.11-.042.294-.108.587-.123.882-.04.812.239,1.136,1,1.058a1.978,1.978,0,0,0,.772-.448.477.477,0,0,0,.194-.5,4.422,4.422,0,0,1,.018-.861C6527.936,1941.51,6527.97,1941.264,6528,1940.987Zm2.748,0c-.552,0-1.052,0-1.552.006a.22.22,0,0,0-.166.13,9.73,9.73,0,0,0-.117,1.353c.013.5.318.653.792.456a1.16,1.16,0,0,0,.307-.187A2.635,2.635,0,0,0,6530.748,1940.988Zm-5.648.032a.46.46,0,0,0-.519.134c-.457.461-.931.9-1.4,1.353a.308.308,0,0,0,.1.513,1.443,1.443,0,0,0,1.653-.79C6525.026,1941.835,6525.048,1941.427,6525.1,1941.02Z" transform="translate(-6513.135 -1928.858)" fill="#116ca5"/>
</svg>