<svg xmlns="http://www.w3.org/2000/svg" width="18.401" height="18.597" viewBox="0 0 18.401 18.597">
  <path id="pen_checkout" d="M16.054,9.017l-3.5-3.5M2.5,19.073l2.959-.329a3.71,3.71,0,0,0,.711-.115,1.749,1.749,0,0,0,.424-.2,3.707,3.707,0,0,0,.534-.484L18.677,6.394a2.473,2.473,0,0,0-3.5-3.5L3.631,14.444a3.7,3.7,0,0,0-.484.534,1.749,1.749,0,0,0-.2.424,3.7,3.7,0,0,0-.115.711Z" transform="translate(-1.75 -1.226)" fill="rgba(0,0,0,0)" stroke="#877d78" stroke-linecap="round" stroke-linejoin="round" stroke-width="1.5"/>
</svg>
