<svg xmlns="http://www.w3.org/2000/svg" width="25.51" height="25.479" viewBox="0 0 25.51 25.479">
  <path id="Path_1233" data-name="Path 1233" d="M40.907,1442.785c.4-.431.817-.9,1.262-1.34a2.893,2.893,0,0,1,4.275.009q1.321,1.3,2.616,2.625a2.894,2.894,0,0,1,.032,4.19c-.153.162-.325.307-.468.476-2.09,2.479-4.753,2.875-7.718,2.1a21.643,21.643,0,0,1-9.457-5.6,22.778,22.778,0,0,1-6.478-9.965,8.824,8.824,0,0,1-.327-4.612,5.889,5.889,0,0,1,1.436-2.7q.683-.733,1.42-1.415a2.871,2.871,0,0,1,4.055.033q1.4,1.347,2.754,2.745a2.88,2.88,0,0,1,.006,4.144c-.448.465-.937.891-1.384,1.311C34.065,1437.174,38.232,1441.358,40.907,1442.785Zm2.736,6.444c.157-.018.439-.043.719-.085,1.572-.234,2.546-1.346,3.494-2.455.35-.41.166-.88-.205-1.251-.861-.859-1.712-1.726-2.581-2.577a.98.98,0,0,0-1.544.006c-.569.549-1.117,1.118-1.68,1.673a1.042,1.042,0,0,1-1.56.205,27.1,27.1,0,0,1-9.314-9.319,1.016,1.016,0,0,1,.182-1.513c.583-.592,1.184-1.166,1.757-1.767a.93.93,0,0,0,.029-1.407q-1.344-1.406-2.736-2.765a.931.931,0,0,0-1.366-.021c-.382.332-.733.7-1.1,1.049a3.938,3.938,0,0,0-1.28,3.458,12.431,12.431,0,0,0,.729,3.179,23.581,23.581,0,0,0,12.162,12.575A11,11,0,0,0,43.643,1449.23Z" transform="translate(-24.463 -1425.723)" fill="#116ca5"/>
</svg>
