<svg xmlns="http://www.w3.org/2000/svg" xmlns:xlink="http://www.w3.org/1999/xlink" width="15" height="15" viewBox="0 0 15 15">
  <defs>
    <clipPath id="clip-path">
      <rect id="Rectangle_9749" data-name="Rectangle 9749" width="15" height="15" transform="translate(33.5 305.838)" fill="#877d78" stroke="#877d78" stroke-width="1"/>
    </clipPath>
  </defs>
  <g id="Mask_Group_1658" data-name="Mask Group 1658" transform="translate(-33.5 -305.838)" clip-path="url(#clip-path)">
    <g id="ticket" transform="translate(35.353 306.011)">
      <path id="Path_67251" data-name="Path 67251" d="M10.281,0H10.2A1.248,1.248,0,0,0,9,.946a1.236,1.236,0,0,1-2.383,0A1.248,1.248,0,0,0,5.419,0h-.08A3.093,3.093,0,0,0,2.25,3.089v9.884A1.853,1.853,0,0,0,4.1,14.827H5.419a1.248,1.248,0,0,0,1.2-.946A1.236,1.236,0,0,1,9,13.88a1.248,1.248,0,0,0,1.2.946h1.316a1.853,1.853,0,0,0,1.853-1.853V3.089A3.093,3.093,0,0,0,10.281,0Zm1.236,13.591-1.324-.039a2.471,2.471,0,0,0-4.774.039H4.1a.618.618,0,0,1-.618-.618V10.5H4.721a.618.618,0,1,0,0-1.236H3.486V3.089A1.853,1.853,0,0,1,5.339,1.236l.088.039A2.477,2.477,0,0,0,7.81,3.089a2.515,2.515,0,0,0,2.405-1.853h.066a1.853,1.853,0,0,1,1.853,1.853V9.267H10.9a.618.618,0,0,0,0,1.236h1.236v2.471A.618.618,0,0,1,11.517,13.591Z" transform="translate(-2.25 0)" fill="#877d78"/>
      <path id="Path_67252" data-name="Path 67252" d="M9.353,11.25H8.118a.618.618,0,1,0,0,1.236H9.353a.618.618,0,1,0,0-1.236Z" transform="translate(-3.176 -1.983)" fill="#877d78"/>
    </g>
  </g>
</svg>
