<svg id="Component_25_5" data-name="Component 25 – 5" xmlns="http://www.w3.org/2000/svg" width="20.021" height="20.021" viewBox="0 0 23.021 23.021">
  <path id="Path_67113" data-name="Path 67113" d="M6.561,6.561h.008M2,4.433v3.4a3.254,3.254,0,0,0,.042.733,1.521,1.521,0,0,0,.182.44,3.254,3.254,0,0,0,.488.548l5.83,5.83a5.666,5.666,0,0,0,1.876,1.524,2.28,2.28,0,0,0,1.41,0A5.665,5.665,0,0,0,13.7,15.385L15.385,13.7a5.665,5.665,0,0,0,1.524-1.876,2.28,2.28,0,0,0,0-1.41,5.666,5.666,0,0,0-1.524-1.876l-5.83-5.83a3.254,3.254,0,0,0-.548-.488,1.521,1.521,0,0,0-.44-.182A3.254,3.254,0,0,0,7.835,2h-3.4a3.777,3.777,0,0,0-1.6.166,1.52,1.52,0,0,0-.664.664A3.777,3.777,0,0,0,2,4.433ZM6.942,6.561a.38.38,0,1,1-.38-.38A.38.38,0,0,1,6.942,6.561Z" transform="translate(2 2)" fill="none" stroke="#877d78" stroke-linecap="round" stroke-linejoin="round" stroke-width="1.5"/>
</svg>
