<svg xmlns="http://www.w3.org/2000/svg" width="26.924" height="24.618" viewBox="0 0 26.924 24.618">
  <path id="red_home" d="M10.444,24.867V15.941a3,3,0,0,1,.131-1.271,1.206,1.206,0,0,1,.527-.527,3,3,0,0,1,1.271-.131h3.377a3,3,0,0,1,1.271.131,1.206,1.206,0,0,1,.527.527,3,3,0,0,1,.131,1.271v8.926M2,11,12.9,2.817a2.788,2.788,0,0,1,.851-.527,1.207,1.207,0,0,1,.614,0,2.788,2.788,0,0,1,.851.527L26.124,11M4.412,9.186V21.007a5.993,5.993,0,0,0,.263,2.543A2.412,2.412,0,0,0,5.73,24.6a5.993,5.993,0,0,0,2.543.263h11.58a5.993,5.993,0,0,0,2.543-.263,2.412,2.412,0,0,0,1.054-1.054,5.993,5.993,0,0,0,.263-2.543V9.186l-7.334-5.5a5.573,5.573,0,0,0-1.7-1.054,2.412,2.412,0,0,0-1.228,0,5.573,5.573,0,0,0-1.7,1.054Z" transform="translate(-0.6 -1.249)" fill="none" stroke="#e30015" stroke-linecap="round" stroke-linejoin="round" stroke-width="2"/>
</svg>
