<svg id="Group_73811" data-name="Group 73811" xmlns="http://www.w3.org/2000/svg" width="33" height="33" viewBox="0 0 33 33">
  <path id="Path_66508" data-name="Path 66508" d="M16.5,0A16.5,16.5,0,1,1,0,16.5,16.5,16.5,0,0,1,16.5,0Z" fill="#f2f2f2" opacity="0.7"/>
  <g id="Group_73703" data-name="Group 73703" transform="translate(7 -19.419)">
    <rect id="Rectangle_9471" data-name="Rectangle 9471" width="19" height="19" transform="translate(0 26.419)" fill="none"/>
    <path id="Path_67142" data-name="Path 67142" d="M6.35,8.583h.007m3.342,0h.007m3.342,0h.007M8.137,15.06l1.087,1.449c.162.216.242.323.342.362a.372.372,0,0,0,.27,0c.1-.039.18-.146.342-.362l1.087-1.449a3.239,3.239,0,0,1,.46-.548,1.489,1.489,0,0,1,.612-.306,3.243,3.243,0,0,1,.714-.04A5.569,5.569,0,0,0,15.021,14a2.233,2.233,0,0,0,1.209-1.209,5.569,5.569,0,0,0,.17-1.971V6.573a5.548,5.548,0,0,0-.243-2.354,2.233,2.233,0,0,0-.976-.976A5.548,5.548,0,0,0,12.826,3H6.573a5.548,5.548,0,0,0-2.354.243,2.233,2.233,0,0,0-.976.976A5.548,5.548,0,0,0,3,6.573v4.243a5.57,5.57,0,0,0,.17,1.971A2.233,2.233,0,0,0,4.379,14a5.569,5.569,0,0,0,1.971.17,3.243,3.243,0,0,1,.714.04,1.489,1.489,0,0,1,.612.306A3.242,3.242,0,0,1,8.137,15.06ZM6.722,8.583a.372.372,0,1,1-.372-.372A.372.372,0,0,1,6.722,8.583Zm3.35,0A.372.372,0,1,1,9.7,8.211.372.372,0,0,1,10.072,8.583Zm3.35,0a.372.372,0,1,1-.372-.372A.372.372,0,0,1,13.422,8.583Z" transform="translate(-0.2 25.971)" fill="none" stroke="#1a1615" stroke-linecap="round" stroke-linejoin="round" stroke-width="1.5"/>
  </g>
</svg>
