<svg xmlns="http://www.w3.org/2000/svg" xmlns:xlink="http://www.w3.org/1999/xlink" width="31" height="31" viewBox="0 0 31 31">
  <defs>
    <clipPath id="clip-path">
      <path id="Path_67238" data-name="Path 67238" d="M15.5,0A15.5,15.5,0,1,1,0,15.5,15.5,15.5,0,0,1,15.5,0Z" transform="translate(17 95)" fill="#fff" stroke="#707070" stroke-width="1"/>
    </clipPath>
  </defs>
  <g id="Group_74033" data-name="Group 74033" transform="translate(-17 -95)">
    <path id="Path_67249" data-name="Path 67249" d="M15.5,0A15.5,15.5,0,1,1,0,15.5,15.5,15.5,0,0,1,15.5,0Z" transform="translate(17 95)" fill="#fff"/>
    <g id="Mask_Group_1657" data-name="Mask Group 1657" clip-path="url(#clip-path)">
      <g id="svgexport-7_1_" data-name="svgexport-7 (1)" transform="translate(13.589 92.661)">
        <path id="Path_67228" data-name="Path 67228" d="M29,15.7c-.206-.525-.53-4.418-1.325-6.074a.87.87,0,0,0-1.288-.2c-.21.2-.529.908-1.092.908-.475,0-.559-.348-.774-.582a1.282,1.282,0,0,0-1.007-.539,1.4,1.4,0,0,0-1.063.536,1.709,1.709,0,0,1-1.342.655,1.356,1.356,0,0,1-1.122-.512,1.509,1.509,0,0,0-1.274-.679c-.6,0-.866.36-1.2.685a1.567,1.567,0,0,1-1.191.506,1.475,1.475,0,0,1-1.188-.548,1.4,1.4,0,0,0-1.119-.643,1.305,1.305,0,0,0-1.054.634,1.416,1.416,0,0,1-1.179.557v2.3h3.075a.751.751,0,0,1,.226-.491.762.762,0,0,1,.548-.229h5.033a.774.774,0,0,1,.774.72A2.541,2.541,0,0,1,23.9,15.862L19.5,33.338H30.012a1.035,1.035,0,0,0,1.032-.947C31.377,28.512,30.9,20.553,29,15.7Z" fill="#e48258"/>
        <path id="Path_67229" data-name="Path 67229" d="M26.118,9.983a.972.972,0,0,0-1.229-.741,1.056,1.056,0,0,0-.616.509c-.217.345-.363.72-.878.72-.64,0-.875-.381-1.191-.723a1.452,1.452,0,0,0-1.191-.533,1.736,1.736,0,0,0-1.274.676,1.788,1.788,0,0,1-1.333.58A1.264,1.264,0,0,1,17.263,9.9a1.348,1.348,0,0,0-1.229-.682,1.466,1.466,0,0,0-1.149.64,1.5,1.5,0,0,1-1.191.616,1.146,1.146,0,0,1-.982-.625,1.362,1.362,0,0,0-.9-.622.824.824,0,0,0-.878.58,33.91,33.91,0,0,0-.6,4.093,5.363,5.363,0,0,1-.577,1.866C6.471,22.127,6.6,29.595,6.73,32.348a1.042,1.042,0,0,0,1.039.991H22.663a1.036,1.036,0,0,0,1.033-1.1c-.182-2.956-.452-11.224,1.717-16.481a5.729,5.729,0,0,0,.414-1.583,25.034,25.034,0,0,0,.292-4.194ZM20.669,13.3a.774.774,0,0,1-.551.229h-4.14a.777.777,0,0,1-.777-.777.36.36,0,0,1,0-.057.751.751,0,0,1,.226-.491.762.762,0,0,1,.548-.229h4.14a.774.774,0,0,1,.774.72.36.36,0,0,1,0,.057.772.772,0,0,1-.226.548Z" fill="#f5af77"/>
        <path id="Path_67230" data-name="Path 67230" d="M24.294,15.394H11.188a.388.388,0,1,1,0-.777H24.294a.388.388,0,0,1,0,.777Z" fill="#e48258"/>
        <path id="Path_67232" data-name="Path 67232" d="M15.826,24.111a.446.446,0,0,1-.316-.762l.674-.674a.447.447,0,1,1,.633.63l-.674.674a.445.445,0,0,1-.317.132Z" fill="#fcccb6"/>
        <path id="Path_67233" data-name="Path 67233" d="M16.082,23.435a.9.9,0,0,0-1.277,0l-2.325,2.325a.9.9,0,1,0,1.277,1.277l2.325-2.325a.9.9,0,0,0,0-1.277Z" fill="#d3714f"/>
        <path id="Path_67234" data-name="Path 67234" d="M19.4,21.272a.318.318,0,0,0-.406.045l-.74.74a.13.13,0,0,1-.185-.184l.756-.756a.306.306,0,1,0-.432-.432l-.756.756a.13.13,0,0,1-.185-.184l.74-.74a.318.318,0,0,0,.045-.406.307.307,0,0,0-.467-.039l-1.637,1.637A1.183,1.183,0,0,0,17.8,23.376l1.637-1.637a.307.307,0,0,0-.04-.467Z" fill="#ffe1d2"/>
        <path id="Path_67235" data-name="Path 67235" d="M15.058,24.113a.446.446,0,0,1-.315-.131l-.707-.707a.446.446,0,1,1,.631-.631l.707.707a.446.446,0,0,1-.316.762Z" fill="#fcccb6"/>
        <path id="Path_67236" data-name="Path 67236" d="M18.352,25.706l-2.346-2.346a.9.9,0,1,0-1.277,1.277l2.346,2.347a.9.9,0,0,0,1.277-1.277Z" fill="#e48258"/>
        <path id="Path_67237" data-name="Path 67237" d="M14.148,23.455a.974.974,0,0,0,.7-.7,1.94,1.94,0,0,0-.567-1.944,2.348,2.348,0,0,0-.989-.56A1.341,1.341,0,0,0,11.645,21.9a2.348,2.348,0,0,0,.559.991,1.94,1.94,0,0,0,1.945.566Z" fill="#ffe1d2"/>
      </g>
    </g>
    <path id="Path_67250" data-name="Path 67250" d="M18.312,2.685a.207.207,0,0,0,.3,0,1.42,1.42,0,0,1,2.036.2c.708,1.026.217,2.583-1.967,3.43a.616.616,0,0,1-.44,0c-2.184-.847-2.675-2.4-1.964-3.43a1.416,1.416,0,0,1,2.033-.2Z" transform="translate(14.035 93.604)" fill="#e30015"/>
  </g>
</svg>
