<svg id="save" xmlns="http://www.w3.org/2000/svg" width="9.86" height="8.764" viewBox="0 0 9.86 8.764">
  <path id="Union" d="M3.013,0a.548.548,0,0,0-.548.548V4.977L.935,3.447a.548.548,0,0,0-.775.775L2.238,6.3a1.1,1.1,0,0,0,1.549,0L5.864,4.223a.548.548,0,0,0-.775-.775L3.56,4.977V.548A.548.548,0,0,0,3.013,0Z" transform="translate(1.918 0)" fill="#141414"/>
  <path id="Path_13_Copy_5_Stroke_" data-name="Path 13 Copy 5 (Stroke)" d="M1.1.548v1.1a.548.548,0,0,0,.548.548H8.216a.548.548,0,0,0,.548-.548V.548a.548.548,0,1,1,1.1,0v1.1A1.643,1.643,0,0,1,8.216,3.287H1.643A1.643,1.643,0,0,1,0,1.643V.548a.548.548,0,0,1,1.1,0Z" transform="translate(0 5.478)" fill="#141414"/>
</svg>
