<svg id="Component_182_1" data-name="Component 182 – 1" xmlns="http://www.w3.org/2000/svg" width="23" height="21" viewBox="0 0 23 21">
  <path id="Path_67126" data-name="Path 67126" d="M10.55,10.556H5.99a4.746,4.746,0,0,0-2,.206,1.894,1.894,0,0,0-.83.825,4.667,4.667,0,0,0-.207,1.991V20m17.1,0V6.022a4.667,4.667,0,0,0-.207-1.991,1.894,1.894,0,0,0-.83-.825,4.746,4.746,0,0,0-2-.206H13.59a4.746,4.746,0,0,0-2,.206,1.894,1.894,0,0,0-.83.825,4.667,4.667,0,0,0-.207,1.991V20M21,20H2M13.875,6.778h2.85m-2.85,3.778h2.85m-2.85,3.778h2.85" transform="translate(0 -1)" fill="none" stroke="#1a1615" stroke-linecap="round" stroke-linejoin="round" stroke-width="1.5"/>
</svg>
