<svg xmlns="http://www.w3.org/2000/svg" width="40" height="40" viewBox="0 0 40 40">
  <g id="language" transform="translate(-1362 -32)">
    <rect id="Rectangle_1" data-name="Rectangle 1" width="40" height="40" rx="20" transform="translate(1362 32)" fill="#fff"/>
    <g id="Bold_2px_share" data-name="Bold 2px/share" transform="translate(1368.002 38.001)">
      <rect id="Bold_2px_share_background" data-name="Bold 2px/share background" width="28" height="28" transform="translate(-0.002 -0.001)" fill="#fff"/>
      <path id="Combined_Shape" data-name="Combined Shape" d="M11.437,18.3a4.575,4.575,0,1,1,4.575,4.576A4.58,4.58,0,0,1,11.437,18.3Zm2.287,0a2.288,2.288,0,1,0,2.287-2.287A2.29,2.29,0,0,0,13.725,18.3ZM7.785,14.7a4.573,4.573,0,0,0,1.178-1.961l3.84,2.3A4.573,4.573,0,0,0,11.625,17ZM0,11.437a4.575,4.575,0,1,1,4.575,4.576A4.58,4.58,0,0,1,0,11.437Zm2.287,0A2.288,2.288,0,1,0,4.575,9.15,2.291,2.291,0,0,0,2.287,11.437Zm5.5-3.26,3.84-2.3A4.567,4.567,0,0,0,12.8,7.835l-3.84,2.3A4.573,4.573,0,0,0,7.785,8.177Zm3.652-3.6A4.575,4.575,0,1,1,16.012,9.15,4.58,4.58,0,0,1,11.437,4.575Zm2.287,0a2.288,2.288,0,1,0,2.287-2.287A2.29,2.29,0,0,0,13.725,4.575Z" transform="translate(3.431 2.287)" fill="#1a1615"/>
    </g>
  </g>
</svg>
