<svg id="Bold_2px_hide" data-name="Bold 2px/hide" xmlns="http://www.w3.org/2000/svg" width="28" height="28" viewBox="0 0 28 28">
  <rect id="Bold_2px_hide_background" data-name="Bold 2px/hide background" width="28" height="28" fill="#fff"/>
  <g id="Group" transform="translate(2.333 2.333)">
    <path id="Combined_Shape" data-name="Combined Shape" d="M3.5,6.659A3.5,3.5,0,0,1,1.992,0L4.318,2.325a1.168,1.168,0,1,0,.349.834,1.16,1.16,0,0,0-.334-.816L6.659,4.667A3.518,3.518,0,0,1,3.5,6.659Z" transform="translate(8.167 8.507)" fill="#1a1615"/>
    <path id="Subtract" d="M.369,6.664a2.551,2.551,0,0,0,0,2.645c1.386,2.312,4.88,6.844,10.965,6.844a11.509,11.509,0,0,0,7.255-2.564l-1.664-1.664a9.2,9.2,0,0,1-5.59,1.895c-4.8,0-7.684-3.578-8.964-5.711a.219.219,0,0,1,0-.244,12.143,12.143,0,0,1,5.473-5.02L6.085,1.085A14.956,14.956,0,0,0,.369,6.664Z" transform="translate(0.333 3.681)" fill="#1a1615"/>
    <path id="Subtract-2" data-name="Subtract" d="M19.087,8.289a.219.219,0,0,0,0-.244c-1.279-2.133-4.166-5.711-8.964-5.711q-.432,0-.844.038L7.263.355A11.491,11.491,0,0,1,10.124,0C16.208,0,19.7,4.533,21.088,6.844a2.551,2.551,0,0,1,0,2.645,16.8,16.8,0,0,1-2,2.689l-1.65-1.65A14.471,14.471,0,0,0,19.087,8.289Z" transform="translate(1.543 3.5)" fill="#1a1615"/>
    <path id="Vector_606_Stroke_" data-name="Vector 606 (Stroke)" d="M1.992.342l21,21a1.167,1.167,0,0,1-1.65,1.65l-21-21A1.167,1.167,0,0,1,1.992.342Z" fill="#1a1615"/>
  </g>
</svg>
