<svg xmlns="http://www.w3.org/2000/svg" xmlns:xlink="http://www.w3.org/1999/xlink" width="43.039" height="43.039" viewBox="0 0 43.039 43.039">
  <defs>
    <clipPath id="clip-path">
      <rect id="Rectangle_9701" data-name="Rectangle 9701" width="22" height="22" transform="translate(4 9)" fill="#1a1615" stroke="#707070" stroke-width="1"/>
    </clipPath>
  </defs>
  <g id="Group_73869" data-name="Group 73869" transform="translate(-13.692 -435)">
    <g id="Group_73698" data-name="Group 73698" transform="translate(13.692 435)">
      <path id="Path_66234" data-name="Path 66234" d="M356.52,57.039A21.52,21.52,0,1,0,335,35.52,21.52,21.52,0,0,0,356.52,57.039Z" transform="translate(-335 -14)" fill="#f5f5f5"/>
    </g>
    <g id="Mask_Group_1650" data-name="Mask Group 1650" transform="translate(20.02 436.02)" clip-path="url(#clip-path)">
      <g id="svgexport-22" transform="translate(4 9.458)">
        <path id="Path_67165" data-name="Path 67165" d="M4.583,11.917A4.583,4.583,0,1,0,9.167,16.5a4.583,4.583,0,0,0-4.583-4.583Zm0,7.333a2.75,2.75,0,1,1,2.75-2.75A2.75,2.75,0,0,1,4.583,19.25Zm12.833-7.333A4.583,4.583,0,1,0,22,16.5a4.583,4.583,0,0,0-4.583-4.583Zm0,7.333a2.75,2.75,0,1,1,2.75-2.75A2.75,2.75,0,0,1,17.417,19.25ZM9.182,9.656A.9.9,0,0,1,9.457,9c.154-.147,2.435-2.239,2.435-2.239l4.033,3.976,1.283-1.305L12.556,4.847,12.48,4.78A5.9,5.9,0,0,0,9.1,3.667c-1.285,0-4.513,1.091-4.513,3.667a2.75,2.75,0,0,0,2.75,2.75c.022,0,.041,0,.063-.005a2.736,2.736,0,0,0,.91,1.65l1.776,1.526v4.163h1.833v-5L9.5,10.337a.906.906,0,0,1-.318-.681ZM6.417,7.333C6.417,6.221,8.408,5.5,9.1,5.5a3.844,3.844,0,0,1,1.227.208S8.2,7.662,8.178,7.686c-.35.333-.638.564-.844.564A.917.917,0,0,1,6.417,7.333Zm6.417-5.042a2.292,2.292,0,1,1,2.292,2.292A2.292,2.292,0,0,1,12.833,2.292Z" fill="#1a1615"/>
      </g>
    </g>
  </g>
</svg>
