<svg xmlns="http://www.w3.org/2000/svg" width="43.039" height="43.039" viewBox="0 0 43.039 43.039">
  <g id="Group_74045" data-name="Group 74045" transform="translate(6.328 1.02)">
    <g id="Group_73869" data-name="Group 73869" transform="translate(-20.02 -436.02)">
      <g id="Group_73698" data-name="Group 73698" transform="translate(13.692 435)">
        <path id="Path_66234" data-name="Path 66234" d="M356.52,57.039A21.52,21.52,0,1,0,335,35.52,21.52,21.52,0,0,0,356.52,57.039Z" transform="translate(-335 -14)" fill="#f5f5f5"/>
      </g>
    </g>
    <path id="Path_67159" data-name="Path 67159" d="M19.8,9.467H3M15.135,2V5.734M7.667,2V5.734M7.48,20.669h7.841a6.957,6.957,0,0,0,2.952-.305A2.8,2.8,0,0,0,19.5,19.14a6.957,6.957,0,0,0,.305-2.952V8.347A6.957,6.957,0,0,0,19.5,5.4a2.8,2.8,0,0,0-1.224-1.224,6.957,6.957,0,0,0-2.952-.305H7.48a6.957,6.957,0,0,0-2.951.305A2.8,2.8,0,0,0,3.305,5.4,6.957,6.957,0,0,0,3,8.347v7.841a6.957,6.957,0,0,0,.305,2.952,2.8,2.8,0,0,0,1.224,1.224A6.957,6.957,0,0,0,7.48,20.669Z" transform="translate(3.791 9.166)" fill="none" stroke="#1a1615" stroke-linecap="round" stroke-linejoin="round" stroke-width="1.5"/>
  </g>
</svg>
