<svg xmlns="http://www.w3.org/2000/svg" xmlns:xlink="http://www.w3.org/1999/xlink" width="43.039" height="43.039" viewBox="0 0 43.039 43.039">
  <defs>
    <clipPath id="clip-path">
      <rect id="Rectangle_9701" data-name="Rectangle 9701" width="22" height="22" transform="translate(4 9)" fill="#1a1615" stroke="#707070" stroke-width="1"/>
    </clipPath>
  </defs>
  <g id="Group_74046" data-name="Group 74046" transform="translate(6.328 1.02)">
    <g id="Group_73869" data-name="Group 73869" transform="translate(-20.02 -436.02)">
      <g id="Group_73698" data-name="Group 73698" transform="translate(13.692 435)">
        <path id="Path_66234" data-name="Path 66234" d="M356.52,57.039A21.52,21.52,0,1,0,335,35.52,21.52,21.52,0,0,0,356.52,57.039Z" transform="translate(-335 -14)" fill="#f5f5f5"/>
      </g>
    </g>
    <g id="Mask_Group_1649" data-name="Mask Group 1649" clip-path="url(#clip-path)">
      <g id="svgexport-10" transform="translate(1.801 6.8)">
        <g id="Group_73884" data-name="Group 73884">
          <path id="Path_67163" data-name="Path 67163" d="M12.1,4.4a2.2,2.2,0,1,1,2.2,2.2A2.2,2.2,0,0,1,12.1,4.4Zm-.44,13.42a1.1,1.1,0,0,1,.22,1.54l-3.3,4.4a1.1,1.1,0,0,1-1.76-1.32l3.3-4.4a1.1,1.1,0,0,1,1.54-.22Zm1.72-10.1a1.1,1.1,0,0,1,.9,1.265l-1.006,6.042,2.9,2.9a1.1,1.1,0,0,1,.206.286l2.2,4.4a1.1,1.1,0,0,1-1.967.983L14.5,19.352l-3.173-3.175a1.1,1.1,0,0,1-.308-.958l1.1-6.6a1.1,1.1,0,0,1,1.266-.9Z" fill="#1a1615" fill-rule="evenodd"/>
          <path id="Path_67164" data-name="Path 67164" d="M12.934,7.733a1.1,1.1,0,0,1,1.045.289l3.115,3.116,3.054,1.017a1.1,1.1,0,1,1-.7,2.088l-3.3-1.1a1.1,1.1,0,0,1-.43-.266l-2.86-2.86-3.382.847L7.515,13.81a1.1,1.1,0,0,1-1.83-1.221l2.2-3.3a1.1,1.1,0,0,1,.649-.456Z" fill="#1a1615" fill-rule="evenodd"/>
        </g>
      </g>
    </g>
  </g>
</svg>
