<svg xmlns="http://www.w3.org/2000/svg" width="19" height="19" viewBox="0 0 19 19">
  <path id="store_checkout" d="M15,21V15.6a2.484,2.484,0,0,0-.109-1.054,1,1,0,0,0-.437-.437A2.484,2.484,0,0,0,13.4,14H10.6a2.484,2.484,0,0,0-1.054.109,1,1,0,0,0-.437.437A2.484,2.484,0,0,0,9,15.6V21M3,7A3,3,0,0,0,9,7a3,3,0,0,0,6,0,3,3,0,0,0,6,0M6.2,21H17.8a4.968,4.968,0,0,0,2.108-.218,2,2,0,0,0,.874-.874A4.968,4.968,0,0,0,21,17.8V6.2a4.968,4.968,0,0,0-.218-2.108,2,2,0,0,0-.874-.874A4.969,4.969,0,0,0,17.8,3H6.2a4.969,4.969,0,0,0-2.108.218,2,2,0,0,0-.874.874A4.969,4.969,0,0,0,3,6.2V17.8a4.969,4.969,0,0,0,.218,2.108,2,2,0,0,0,.874.874A4.968,4.968,0,0,0,6.2,21Z" transform="translate(-2.5 -2.5)" fill="#fff" stroke="#e30015" stroke-linecap="round" stroke-linejoin="round" stroke-width="1"/>
</svg>
