<svg xmlns="http://www.w3.org/2000/svg" width="40.554" height="40.554" viewBox="0 0 40.554 40.554">
  <path id="Suitable" d="M13.416,26.735H28.638m-1.9-11.416h.019m-11.435,0h.019m24.716,5.708A19.027,19.027,0,1,1,21.027,2,19.027,19.027,0,0,1,40.054,21.027ZM27.687,15.319a.951.951,0,1,1-.951-.951A.951.951,0,0,1,27.687,15.319Zm-11.416,0a.951.951,0,1,1-.951-.951A.951.951,0,0,1,16.27,15.319Z" transform="translate(-0.75 -0.75)" fill="none" stroke="#877d78" stroke-linecap="round" stroke-linejoin="round" stroke-width="2.5"/>
</svg>
