<svg id="Component_41_1" data-name="Component 41 – 1" xmlns="http://www.w3.org/2000/svg" width="23" height="23" viewBox="0 0 23 23">
  <path id="Path_67140" data-name="Path 67140" d="M11.025,4.85h.413c2.895,0,4.342,0,4.892.52a1.9,1.9,0,0,1,.557,1.753c-.148.742-1.33,1.578-3.694,3.249L9.332,13.1c-2.363,1.672-3.545,2.508-3.693,3.249A1.9,1.9,0,0,0,6.2,18.105c.549.52,2,.52,4.892.52h.888M7.7,4.85A2.85,2.85,0,1,1,4.85,2,2.85,2.85,0,0,1,7.7,4.85ZM21,18.15a2.85,2.85,0,1,1-2.85-2.85A2.85,2.85,0,0,1,21,18.15Z" fill="none" stroke="#1a1615" stroke-linecap="round" stroke-linejoin="round" stroke-width="1.5"/>
</svg>
