<svg xmlns="http://www.w3.org/2000/svg" xmlns:xlink="http://www.w3.org/1999/xlink" width="20" height="20" viewBox="0 0 20 20">
  <defs>
    <clipPath id="clip-path">
      <rect id="Rectangle_9466" data-name="Rectangle 9466" width="20" height="20" transform="translate(1368 38)" fill="#1a1615" stroke="#707070" stroke-width="1"/>
    </clipPath>
  </defs>
  <g id="twiter" transform="translate(-1368 -38)" clip-path="url(#clip-path)">
    <g id="twitter-line" transform="translate(1368 38)">
      <path id="Path_67087" data-name="Path 67087" d="M0,0H20V20H0Z" fill="none"/>
      <path id="Path_67088" data-name="Path 67088" d="M12.75,4.625A2.417,2.417,0,0,0,10.333,7L10.31,8.31a.5.5,0,0,1-.567.486l-1.3-.177A9.756,9.756,0,0,1,3.517,6.287,5.467,5.467,0,0,0,6.337,12.43l1.456.915a.5.5,0,0,1,.028.828l-1.327.969a8.635,8.635,0,0,0,2.16-.109c3.932-.785,6.546-3.743,6.546-8.623a2.517,2.517,0,0,0-2.45-1.784ZM8.667,6.967a4.083,4.083,0,0,1,6.988-2.8,3.214,3.214,0,0,0,2.224-.538,6.023,6.023,0,0,1-1.012,2.776c0,6.368-3.914,9.465-7.886,10.257-2.723.543-6.683-.349-7.818-1.534a9.621,9.621,0,0,0,4.287-1.292C4.3,13.083-.274,10.392,2.732,3.155A11.7,11.7,0,0,0,7.023,6.519a4.9,4.9,0,0,0,1.644.448Z" fill="#1a1615"/>
    </g>
  </g>
</svg>
