<svg xmlns="http://www.w3.org/2000/svg" width="23.189" height="18.998" viewBox="0 0 23.189 18.998">
  <g id="Group_711" data-name="Group 711" transform="translate(-253.405 -674.784)">
    <path id="Path_1192" data-name="Path 1192" d="M2276.258-60.66a4.921,4.921,0,0,1-4.432-3.275c.343,0,.678.014,1.012,0a6.556,6.556,0,0,0,.976-.135,5,5,0,0,1-3.706-4.769,5.151,5.151,0,0,0,2.093.55,4.934,4.934,0,0,1-1.414-6.393,13.794,13.794,0,0,0,9.884,5.033c-.021-.238-.038-.464-.059-.689a4.767,4.767,0,0,1,4.114-5.145,4.563,4.563,0,0,1,3.784,1.134.846.846,0,0,0,.944.192c.793-.3,1.59-.584,2.383-.875a5.266,5.266,0,0,1-1.777,2.457c.261-.051.525-.093.784-.154.275-.065.547-.145.818-.224s.522-.16.782-.24l.06.075c-.42.471-.831.952-1.264,1.41a6.638,6.638,0,0,1-.758.668.688.688,0,0,0-.289.609,13.189,13.189,0,0,1-.691,4.471,13.562,13.562,0,0,1-6,7.6,12.9,12.9,0,0,1-4.894,1.682,13.838,13.838,0,0,1-6.5-.589,13.208,13.208,0,0,1-2.792-1.373A9.956,9.956,0,0,0,2276.258-60.66Z" transform="translate(-2015.912 750.316)" fill="#116ca5"/>
  </g>
</svg>
