<svg xmlns="http://www.w3.org/2000/svg" width="41.089" height="41.089" viewBox="0 0 41.089 41.089">
  <path id="very_bad" d="M29.013,29.013a10.418,10.418,0,0,0-7.718-3.859,10.418,10.418,0,0,0-7.718,3.859M30.942,15.969a3.751,3.751,0,0,1-2.894,1.466,3.8,3.8,0,0,1-2.894-1.466m-7.718,0a3.751,3.751,0,0,1-2.894,1.466,3.8,3.8,0,0,1-2.894-1.466m28.942,5.325A19.295,19.295,0,1,1,21.295,2,19.295,19.295,0,0,1,40.589,21.295Z" transform="translate(-0.75 -0.75)" fill="none" stroke="#877d78" stroke-linecap="round" stroke-linejoin="round" stroke-width="2.5"/>
</svg>
