<svg xmlns="http://www.w3.org/2000/svg" width="39.5" height="39.5" viewBox="0 0 39.5 39.5">
  <path id="very_good" data-name="very good" d="M26.05,14.95h.019m-11.119,0h.019M39,20.5A18.5,18.5,0,1,1,20.5,2,18.5,18.5,0,0,1,39,20.5ZM26.975,14.95a.925.925,0,1,1-.925-.925A.925.925,0,0,1,26.975,14.95Zm-11.1,0a.925.925,0,1,1-.925-.925A.925.925,0,0,1,15.875,14.95ZM20.5,30.675c4.626,0,8.325-3.391,8.325-6.475H12.175C12.175,27.284,15.874,30.675,20.5,30.675Z" transform="translate(-0.75 -0.75)" fill="none" stroke="#877d78" stroke-linecap="round" stroke-linejoin="round" stroke-width="2.5"/>
</svg>
